<mxfile host="Electron" modified="2023-12-27T08:22:06.577Z" agent="Mozilla/5.0 (Windows NT 10.0; Win64; x64) AppleWebKit/537.36 (KHTML, like Gecko) draw.io/22.0.3 Chrome/114.0.5735.289 Electron/25.8.4 Safari/537.36" etag="0mifRZvwsbHZdOktDwaQ" version="22.0.3" type="device">
  <diagram name="Page-1" id="Fud_h3DdBJw0vKQcgktF">
    <mxGraphModel dx="3440" dy="1515" grid="1" gridSize="10" guides="1" tooltips="1" connect="1" arrows="1" fold="1" page="1" pageScale="1" pageWidth="850" pageHeight="1100" background="none" math="0" shadow="0">
      <root>
        <mxCell id="0" />
        <mxCell id="1" parent="0" />
        <mxCell id="w-EnV2-663KXfcH5xZw4-127" value="" style="rounded=1;whiteSpace=wrap;html=1;labelBackgroundColor=none;fillColor=#dae8fc;strokeColor=#6c8ebf;fontStyle=1;fontSize=22;fontColor=#000000;align=center;" parent="1" vertex="1">
          <mxGeometry x="510" y="1225" width="670" height="110" as="geometry" />
        </mxCell>
        <mxCell id="w-EnV2-663KXfcH5xZw4-1" value="Fakulteti" style="rounded=1;whiteSpace=wrap;html=1;labelBackgroundColor=none;fillColor=#f8cecc;strokeColor=#b85450;fontStyle=1;fontSize=22;fontColor=#000000;align=center;" parent="1" vertex="1">
          <mxGeometry x="340" y="360" width="140" height="80" as="geometry" />
        </mxCell>
        <mxCell id="w-EnV2-663KXfcH5xZw4-2" value="Emri i Fakultetit&lt;br style=&quot;font-size: 22px;&quot;&gt;" style="ellipse;whiteSpace=wrap;html=1;labelBackgroundColor=none;rounded=1;fillColor=#A8DADC;strokeColor=#457B9D;fontColor=#000000;fontStyle=1;fontSize=22;align=center;" parent="1" vertex="1">
          <mxGeometry x="55" y="150" width="145" height="80" as="geometry" />
        </mxCell>
        <mxCell id="w-EnV2-663KXfcH5xZw4-3" value="" style="endArrow=classic;html=1;rounded=1;exitX=0;exitY=0;exitDx=0;exitDy=0;entryX=1;entryY=1;entryDx=0;entryDy=0;labelBackgroundColor=none;fontColor=#000000;strokeColor=#457B9D;fontStyle=1;fontSize=22;align=center;strokeWidth=4;" parent="1" source="w-EnV2-663KXfcH5xZw4-1" target="w-EnV2-663KXfcH5xZw4-2" edge="1">
          <mxGeometry width="50" height="50" relative="1" as="geometry">
            <mxPoint x="380" y="330" as="sourcePoint" />
            <mxPoint x="430" y="280" as="targetPoint" />
          </mxGeometry>
        </mxCell>
        <mxCell id="w-EnV2-663KXfcH5xZw4-4" value="Adresa&lt;br style=&quot;font-size: 22px;&quot;&gt;" style="ellipse;whiteSpace=wrap;html=1;labelBackgroundColor=none;rounded=1;fillColor=#A8DADC;strokeColor=#457B9D;fontColor=#000000;fontStyle=1;fontSize=22;align=center;" parent="1" vertex="1">
          <mxGeometry x="340" y="200" width="140" height="80" as="geometry" />
        </mxCell>
        <mxCell id="w-EnV2-663KXfcH5xZw4-5" value="" style="endArrow=classic;html=1;rounded=1;entryX=0.5;entryY=1;entryDx=0;entryDy=0;labelBackgroundColor=none;fontColor=#000000;strokeColor=#457B9D;fontStyle=1;fontSize=22;align=center;strokeWidth=4;" parent="1" source="w-EnV2-663KXfcH5xZw4-1" target="w-EnV2-663KXfcH5xZw4-4" edge="1">
          <mxGeometry width="50" height="50" relative="1" as="geometry">
            <mxPoint x="380" y="330" as="sourcePoint" />
            <mxPoint x="430" y="280" as="targetPoint" />
          </mxGeometry>
        </mxCell>
        <mxCell id="w-EnV2-663KXfcH5xZw4-6" value="Qytetin" style="ellipse;whiteSpace=wrap;html=1;labelBackgroundColor=none;rounded=1;fillColor=#A8DADC;strokeColor=#457B9D;fontColor=#000000;fontStyle=1;fontSize=22;align=center;" parent="1" vertex="1">
          <mxGeometry x="340" y="20" width="150" height="80" as="geometry" />
        </mxCell>
        <mxCell id="w-EnV2-663KXfcH5xZw4-7" value="" style="endArrow=classic;html=1;rounded=1;exitX=0.5;exitY=0;exitDx=0;exitDy=0;entryX=0.5;entryY=1;entryDx=0;entryDy=0;labelBackgroundColor=none;fontColor=#000000;strokeColor=#457B9D;fontStyle=1;fontSize=22;align=center;strokeWidth=4;" parent="1" source="w-EnV2-663KXfcH5xZw4-4" target="w-EnV2-663KXfcH5xZw4-6" edge="1">
          <mxGeometry width="50" height="50" relative="1" as="geometry">
            <mxPoint x="422" y="340" as="sourcePoint" />
            <mxPoint x="420" y="100" as="targetPoint" />
          </mxGeometry>
        </mxCell>
        <mxCell id="w-EnV2-663KXfcH5xZw4-8" value="Numri i rruges" style="ellipse;whiteSpace=wrap;html=1;labelBackgroundColor=none;rounded=1;fillColor=#A8DADC;strokeColor=#457B9D;fontColor=#000000;fontStyle=1;fontSize=22;align=center;" parent="1" vertex="1">
          <mxGeometry x="540" y="30" width="130" height="80" as="geometry" />
        </mxCell>
        <mxCell id="w-EnV2-663KXfcH5xZw4-9" value="" style="endArrow=classic;html=1;rounded=1;entryX=0;entryY=1;entryDx=0;entryDy=0;exitX=1;exitY=0;exitDx=0;exitDy=0;labelBackgroundColor=none;fontColor=#000000;strokeColor=#457B9D;fontStyle=1;fontSize=22;align=center;strokeWidth=4;" parent="1" source="w-EnV2-663KXfcH5xZw4-4" target="w-EnV2-663KXfcH5xZw4-8" edge="1">
          <mxGeometry width="50" height="50" relative="1" as="geometry">
            <mxPoint x="440" y="180" as="sourcePoint" />
            <mxPoint x="474" y="110" as="targetPoint" />
          </mxGeometry>
        </mxCell>
        <mxCell id="w-EnV2-663KXfcH5xZw4-10" value="&lt;font style=&quot;font-size: 22px;&quot;&gt;&lt;span style=&quot;font-size: 22px;&quot;&gt;Dekani&lt;/span&gt;&lt;/font&gt;" style="ellipse;whiteSpace=wrap;html=1;labelBackgroundColor=none;rounded=1;fillColor=#A8DADC;strokeColor=#457B9D;fontColor=#000000;fontStyle=1;fontSize=22;align=center;" parent="1" vertex="1">
          <mxGeometry x="660" y="130" width="120" height="80" as="geometry" />
        </mxCell>
        <mxCell id="w-EnV2-663KXfcH5xZw4-11" value="" style="endArrow=classic;html=1;rounded=1;exitX=0.75;exitY=0;exitDx=0;exitDy=0;entryX=0;entryY=1;entryDx=0;entryDy=0;labelBackgroundColor=none;fontColor=#000000;strokeColor=#457B9D;fontStyle=1;fontSize=22;align=center;strokeWidth=4;" parent="1" source="w-EnV2-663KXfcH5xZw4-1" target="w-EnV2-663KXfcH5xZw4-10" edge="1">
          <mxGeometry width="50" height="50" relative="1" as="geometry">
            <mxPoint x="370" y="330" as="sourcePoint" />
            <mxPoint x="272" y="248" as="targetPoint" />
          </mxGeometry>
        </mxCell>
        <mxCell id="w-EnV2-663KXfcH5xZw4-12" value="Informacione&lt;br style=&quot;font-size: 22px;&quot;&gt;Kontaktuese&lt;br style=&quot;font-size: 22px;&quot;&gt;" style="ellipse;whiteSpace=wrap;html=1;labelBackgroundColor=none;rounded=1;fillColor=#A8DADC;strokeColor=#457B9D;fontColor=#000000;fontStyle=1;fontSize=22;align=center;" parent="1" vertex="1">
          <mxGeometry x="680" y="230" width="200" height="80" as="geometry" />
        </mxCell>
        <mxCell id="w-EnV2-663KXfcH5xZw4-13" value="" style="endArrow=classic;html=1;rounded=1;exitX=1;exitY=0;exitDx=0;exitDy=0;entryX=0.093;entryY=0.838;entryDx=0;entryDy=0;entryPerimeter=0;labelBackgroundColor=none;fontColor=#000000;strokeColor=#457B9D;fontStyle=1;fontSize=22;align=center;strokeWidth=4;" parent="1" source="w-EnV2-663KXfcH5xZw4-1" target="w-EnV2-663KXfcH5xZw4-12" edge="1">
          <mxGeometry width="50" height="50" relative="1" as="geometry">
            <mxPoint x="490" y="330" as="sourcePoint" />
            <mxPoint x="598" y="168" as="targetPoint" />
          </mxGeometry>
        </mxCell>
        <mxCell id="w-EnV2-663KXfcH5xZw4-14" value="Permbane" style="rhombus;whiteSpace=wrap;html=1;labelBackgroundColor=none;rounded=1;fillColor=#fff2cc;strokeColor=#d6b656;fontStyle=1;fontSize=22;fontColor=#000000;align=center;" parent="1" vertex="1">
          <mxGeometry x="335" y="480" width="140" height="80" as="geometry" />
        </mxCell>
        <mxCell id="w-EnV2-663KXfcH5xZw4-15" value="" style="endArrow=classic;html=1;rounded=1;exitX=0.5;exitY=0;exitDx=0;exitDy=0;entryX=0.5;entryY=1;entryDx=0;entryDy=0;labelBackgroundColor=none;fontColor=#000000;strokeColor=#457B9D;fontStyle=1;fontSize=22;align=center;strokeWidth=4;" parent="1" source="w-EnV2-663KXfcH5xZw4-14" target="w-EnV2-663KXfcH5xZw4-1" edge="1">
          <mxGeometry width="50" height="50" relative="1" as="geometry">
            <mxPoint x="330" y="450" as="sourcePoint" />
            <mxPoint x="380" y="400" as="targetPoint" />
          </mxGeometry>
        </mxCell>
        <mxCell id="w-EnV2-663KXfcH5xZw4-16" value="" style="endArrow=none;html=1;rounded=1;exitX=0.5;exitY=1;exitDx=0;exitDy=0;entryX=0.5;entryY=0;entryDx=0;entryDy=0;labelBackgroundColor=none;fontColor=#000000;strokeColor=#457B9D;fontStyle=1;fontSize=22;align=center;strokeWidth=4;" parent="1" source="w-EnV2-663KXfcH5xZw4-14" target="w-EnV2-663KXfcH5xZw4-18" edge="1">
          <mxGeometry width="50" height="50" relative="1" as="geometry">
            <mxPoint x="330" y="450" as="sourcePoint" />
            <mxPoint x="400" y="570" as="targetPoint" />
          </mxGeometry>
        </mxCell>
        <mxCell id="w-EnV2-663KXfcH5xZw4-18" value="Departementi&lt;br style=&quot;font-size: 22px;&quot;&gt;Akademik&lt;br style=&quot;font-size: 22px;&quot;&gt;" style="rounded=1;whiteSpace=wrap;html=1;labelBackgroundColor=none;fillColor=#f8cecc;strokeColor=#b85450;fontStyle=1;fontSize=22;fontColor=#000000;align=center;" parent="1" vertex="1">
          <mxGeometry x="330" y="590" width="150" height="60" as="geometry" />
        </mxCell>
        <mxCell id="w-EnV2-663KXfcH5xZw4-19" value="Emri i &lt;br style=&quot;font-size: 22px;&quot;&gt;Departamentit" style="ellipse;whiteSpace=wrap;html=1;labelBackgroundColor=none;rounded=1;fillColor=#A8DADC;strokeColor=#457B9D;fontColor=#000000;fontStyle=1;fontSize=22;align=center;" parent="1" vertex="1">
          <mxGeometry x="30" y="580" width="150" height="80" as="geometry" />
        </mxCell>
        <mxCell id="w-EnV2-663KXfcH5xZw4-20" value="" style="endArrow=classic;html=1;rounded=1;exitX=0;exitY=0.5;exitDx=0;exitDy=0;entryX=1;entryY=0.5;entryDx=0;entryDy=0;labelBackgroundColor=none;fontColor=#000000;strokeColor=#457B9D;fontStyle=1;fontSize=22;align=center;strokeWidth=4;" parent="1" source="w-EnV2-663KXfcH5xZw4-18" target="w-EnV2-663KXfcH5xZw4-19" edge="1">
          <mxGeometry width="50" height="50" relative="1" as="geometry">
            <mxPoint x="330" y="550" as="sourcePoint" />
            <mxPoint x="380" y="500" as="targetPoint" />
          </mxGeometry>
        </mxCell>
        <mxCell id="w-EnV2-663KXfcH5xZw4-21" value="Kreu i&amp;nbsp;&lt;br style=&quot;font-size: 22px;&quot;&gt;Departamentit" style="ellipse;whiteSpace=wrap;html=1;labelBackgroundColor=none;rounded=1;fillColor=#A8DADC;strokeColor=#457B9D;fontColor=#000000;fontStyle=1;fontSize=22;align=center;" parent="1" vertex="1">
          <mxGeometry x="660" y="560" width="160" height="80" as="geometry" />
        </mxCell>
        <mxCell id="w-EnV2-663KXfcH5xZw4-22" value="" style="endArrow=classic;html=1;rounded=1;exitX=1;exitY=0.5;exitDx=0;exitDy=0;entryX=0;entryY=0.5;entryDx=0;entryDy=0;labelBackgroundColor=none;fontColor=#000000;strokeColor=#457B9D;fontStyle=1;fontSize=22;align=center;strokeWidth=4;" parent="1" source="w-EnV2-663KXfcH5xZw4-18" target="w-EnV2-663KXfcH5xZw4-21" edge="1">
          <mxGeometry width="50" height="50" relative="1" as="geometry">
            <mxPoint x="350" y="610" as="sourcePoint" />
            <mxPoint x="190" y="610" as="targetPoint" />
          </mxGeometry>
        </mxCell>
        <mxCell id="w-EnV2-663KXfcH5xZw4-26" value="Permbane" style="rhombus;whiteSpace=wrap;html=1;labelBackgroundColor=none;rounded=1;fillColor=#fff2cc;strokeColor=#d6b656;fontStyle=1;fontSize=22;fontColor=#000000;align=center;" parent="1" vertex="1">
          <mxGeometry x="320" y="690" width="160" height="80" as="geometry" />
        </mxCell>
        <mxCell id="w-EnV2-663KXfcH5xZw4-28" value="" style="endArrow=classic;html=1;rounded=1;entryX=0.5;entryY=1;entryDx=0;entryDy=0;exitX=0.5;exitY=0;exitDx=0;exitDy=0;labelBackgroundColor=none;fontColor=#000000;strokeColor=#457B9D;fontStyle=1;fontSize=22;align=center;strokeWidth=4;" parent="1" source="w-EnV2-663KXfcH5xZw4-26" target="w-EnV2-663KXfcH5xZw4-18" edge="1">
          <mxGeometry width="50" height="50" relative="1" as="geometry">
            <mxPoint x="500" y="670" as="sourcePoint" />
            <mxPoint x="410" y="390" as="targetPoint" />
          </mxGeometry>
        </mxCell>
        <mxCell id="w-EnV2-663KXfcH5xZw4-32" value="" style="endArrow=none;html=1;rounded=1;exitX=0.5;exitY=1;exitDx=0;exitDy=0;entryX=0.5;entryY=0;entryDx=0;entryDy=0;labelBackgroundColor=none;fontColor=#000000;strokeColor=#457B9D;fontStyle=1;fontSize=22;align=center;strokeWidth=4;" parent="1" source="w-EnV2-663KXfcH5xZw4-26" target="w-EnV2-663KXfcH5xZw4-33" edge="1">
          <mxGeometry width="50" height="50" relative="1" as="geometry">
            <mxPoint x="330" y="660" as="sourcePoint" />
            <mxPoint x="400" y="800" as="targetPoint" />
          </mxGeometry>
        </mxCell>
        <mxCell id="w-EnV2-663KXfcH5xZw4-33" value="Stafi&amp;nbsp;&lt;br style=&quot;font-size: 22px;&quot;&gt;Akademik" style="rounded=1;whiteSpace=wrap;html=1;labelBackgroundColor=none;fillColor=#f8cecc;strokeColor=#b85450;fontStyle=1;fontSize=22;fontColor=#000000;align=center;" parent="1" vertex="1">
          <mxGeometry x="340" y="790" width="120" height="70" as="geometry" />
        </mxCell>
        <mxCell id="w-EnV2-663KXfcH5xZw4-34" value="Titulli&amp;nbsp;&lt;br style=&quot;font-size: 22px;&quot;&gt;Akademik" style="ellipse;whiteSpace=wrap;html=1;labelBackgroundColor=none;rounded=1;fillColor=#A8DADC;strokeColor=#457B9D;fontColor=#000000;fontStyle=1;fontSize=22;align=center;" parent="1" vertex="1">
          <mxGeometry x="40" y="790" width="153" height="80" as="geometry" />
        </mxCell>
        <mxCell id="w-EnV2-663KXfcH5xZw4-35" value="" style="endArrow=classic;html=1;rounded=1;exitX=0;exitY=0.5;exitDx=0;exitDy=0;entryX=1;entryY=0.5;entryDx=0;entryDy=0;labelBackgroundColor=none;fontColor=#000000;strokeColor=#457B9D;fontStyle=1;fontSize=22;align=center;strokeWidth=4;" parent="1" source="w-EnV2-663KXfcH5xZw4-33" target="w-EnV2-663KXfcH5xZw4-34" edge="1">
          <mxGeometry width="50" height="50" relative="1" as="geometry">
            <mxPoint x="330" y="760" as="sourcePoint" />
            <mxPoint x="380" y="710" as="targetPoint" />
          </mxGeometry>
        </mxCell>
        <mxCell id="w-EnV2-663KXfcH5xZw4-36" value="Emri" style="ellipse;whiteSpace=wrap;html=1;labelBackgroundColor=none;rounded=1;fillColor=#A8DADC;strokeColor=#457B9D;fontColor=#000000;fontStyle=1;fontSize=22;align=center;" parent="1" vertex="1">
          <mxGeometry x="50" y="880" width="143" height="80" as="geometry" />
        </mxCell>
        <mxCell id="w-EnV2-663KXfcH5xZw4-37" value="Emri i &lt;br style=&quot;font-size: 22px;&quot;&gt;Departamentit&lt;br style=&quot;font-size: 22px;&quot;&gt;" style="ellipse;whiteSpace=wrap;html=1;labelBackgroundColor=none;rounded=1;fillColor=#A8DADC;strokeColor=#457B9D;fontColor=#000000;fontStyle=1;fontSize=22;align=center;" parent="1" vertex="1">
          <mxGeometry x="430" y="970" width="170" height="70" as="geometry" />
        </mxCell>
        <mxCell id="w-EnV2-663KXfcH5xZw4-38" value="Mbiemri" style="ellipse;whiteSpace=wrap;html=1;labelBackgroundColor=none;rounded=1;fillColor=#A8DADC;strokeColor=#457B9D;fontColor=#000000;fontStyle=1;fontSize=22;align=center;" parent="1" vertex="1">
          <mxGeometry x="110" y="960" width="140" height="80" as="geometry" />
        </mxCell>
        <mxCell id="w-EnV2-663KXfcH5xZw4-39" value="" style="endArrow=classic;html=1;rounded=1;exitX=0.25;exitY=1;exitDx=0;exitDy=0;entryX=1;entryY=0;entryDx=0;entryDy=0;labelBackgroundColor=none;fontColor=#000000;strokeColor=#457B9D;fontStyle=1;fontSize=22;align=center;strokeWidth=4;" parent="1" source="w-EnV2-663KXfcH5xZw4-33" target="w-EnV2-663KXfcH5xZw4-38" edge="1">
          <mxGeometry width="50" height="50" relative="1" as="geometry">
            <mxPoint x="350" y="840" as="sourcePoint" />
            <mxPoint x="370" y="950" as="targetPoint" />
          </mxGeometry>
        </mxCell>
        <mxCell id="w-EnV2-663KXfcH5xZw4-40" value="" style="endArrow=classic;html=1;rounded=1;entryX=1;entryY=0.5;entryDx=0;entryDy=0;exitX=0.021;exitY=0.965;exitDx=0;exitDy=0;labelBackgroundColor=none;fontColor=#000000;strokeColor=#457B9D;exitPerimeter=0;fontStyle=1;fontSize=22;align=center;strokeWidth=4;" parent="1" source="w-EnV2-663KXfcH5xZw4-33" target="w-EnV2-663KXfcH5xZw4-36" edge="1">
          <mxGeometry width="50" height="50" relative="1" as="geometry">
            <mxPoint x="320" y="900" as="sourcePoint" />
            <mxPoint x="220" y="850" as="targetPoint" />
          </mxGeometry>
        </mxCell>
        <mxCell id="w-EnV2-663KXfcH5xZw4-41" value="" style="endArrow=classic;html=1;rounded=1;labelBackgroundColor=none;fontColor=#000000;strokeColor=#457B9D;exitX=0.977;exitY=0.94;exitDx=0;exitDy=0;exitPerimeter=0;fontStyle=1;fontSize=22;align=center;strokeWidth=4;" parent="1" source="w-EnV2-663KXfcH5xZw4-33" target="w-EnV2-663KXfcH5xZw4-37" edge="1">
          <mxGeometry width="50" height="50" relative="1" as="geometry">
            <mxPoint x="460" y="860" as="sourcePoint" />
            <mxPoint x="360" y="900" as="targetPoint" />
            <Array as="points" />
          </mxGeometry>
        </mxCell>
        <mxCell id="w-EnV2-663KXfcH5xZw4-42" value="Informacione&lt;br style=&quot;font-size: 22px;&quot;&gt;Kontaktuese rreth Stafit&lt;br style=&quot;font-size: 22px;&quot;&gt;" style="ellipse;whiteSpace=wrap;html=1;labelBackgroundColor=none;rounded=1;fillColor=#A8DADC;strokeColor=#457B9D;fontColor=#000000;fontStyle=1;fontSize=22;align=center;" parent="1" vertex="1">
          <mxGeometry x="575" y="900" width="225" height="85" as="geometry" />
        </mxCell>
        <mxCell id="w-EnV2-663KXfcH5xZw4-48" value="ID&lt;br style=&quot;font-size: 22px;&quot;&gt;Stafit Akademik" style="ellipse;whiteSpace=wrap;html=1;align=center;fontStyle=5;labelBackgroundColor=none;rounded=1;fillColor=#A8DADC;strokeColor=#457B9D;fontColor=#000000;fontSize=22;" parent="1" vertex="1">
          <mxGeometry x="630" y="820" width="210" height="70" as="geometry" />
        </mxCell>
        <mxCell id="w-EnV2-663KXfcH5xZw4-49" value="" style="endArrow=classic;html=1;rounded=1;entryX=0;entryY=0.5;entryDx=0;entryDy=0;labelBackgroundColor=none;fontColor=#000000;strokeColor=#457B9D;exitX=0.999;exitY=0.387;exitDx=0;exitDy=0;exitPerimeter=0;fontStyle=1;fontSize=22;align=center;strokeWidth=4;" parent="1" source="w-EnV2-663KXfcH5xZw4-33" target="w-EnV2-663KXfcH5xZw4-48" edge="1">
          <mxGeometry width="50" height="50" relative="1" as="geometry">
            <mxPoint x="460" y="830" as="sourcePoint" />
            <mxPoint x="584" y="925" as="targetPoint" />
            <Array as="points" />
          </mxGeometry>
        </mxCell>
        <mxCell id="w-EnV2-663KXfcH5xZw4-51" value="ID&amp;nbsp;&lt;br style=&quot;font-size: 22px;&quot;&gt;Fakultetit" style="ellipse;whiteSpace=wrap;html=1;align=center;fontStyle=5;labelBackgroundColor=none;rounded=1;fillColor=#A8DADC;strokeColor=#457B9D;fontColor=#000000;fontSize=22;" parent="1" vertex="1">
          <mxGeometry x="117.5" y="50" width="142.5" height="80" as="geometry" />
        </mxCell>
        <mxCell id="w-EnV2-663KXfcH5xZw4-52" value="" style="endArrow=classic;html=1;rounded=1;exitX=0.25;exitY=0;exitDx=0;exitDy=0;entryX=0.913;entryY=0.8;entryDx=0;entryDy=0;entryPerimeter=0;labelBackgroundColor=none;fontColor=#000000;strokeColor=#457B9D;fontStyle=1;fontSize=22;align=center;strokeWidth=4;" parent="1" source="w-EnV2-663KXfcH5xZw4-1" target="w-EnV2-663KXfcH5xZw4-51" edge="1">
          <mxGeometry width="50" height="50" relative="1" as="geometry">
            <mxPoint x="350" y="330" as="sourcePoint" />
            <mxPoint x="202" y="248" as="targetPoint" />
          </mxGeometry>
        </mxCell>
        <mxCell id="w-EnV2-663KXfcH5xZw4-53" value="ID&lt;br style=&quot;font-size: 22px;&quot;&gt;Departamentit" style="ellipse;whiteSpace=wrap;html=1;align=center;fontStyle=5;labelBackgroundColor=none;rounded=1;fillColor=#A8DADC;strokeColor=#457B9D;fontColor=#000000;fontSize=22;" parent="1" vertex="1">
          <mxGeometry x="670" y="450" width="180" height="80" as="geometry" />
        </mxCell>
        <mxCell id="w-EnV2-663KXfcH5xZw4-54" value="" style="endArrow=classic;html=1;rounded=1;exitX=1;exitY=0;exitDx=0;exitDy=0;entryX=0;entryY=1;entryDx=0;entryDy=0;labelBackgroundColor=none;fontColor=#000000;strokeColor=#457B9D;fontStyle=1;fontSize=22;align=center;strokeWidth=4;" parent="1" source="w-EnV2-663KXfcH5xZw4-18" target="w-EnV2-663KXfcH5xZw4-53" edge="1">
          <mxGeometry width="50" height="50" relative="1" as="geometry">
            <mxPoint x="470" y="610" as="sourcePoint" />
            <mxPoint x="670" y="610" as="targetPoint" />
          </mxGeometry>
        </mxCell>
        <mxCell id="w-EnV2-663KXfcH5xZw4-55" value="Numri i Telefonit&lt;br style=&quot;font-size: 22px;&quot;&gt;" style="shape=ext;margin=3;double=1;whiteSpace=wrap;html=1;align=center;labelBackgroundColor=none;rounded=1;fontStyle=1;fontSize=22;fontColor=#ffffff;fillColor=#6a00ff;strokeColor=#3700CC;" parent="1" vertex="1">
          <mxGeometry x="-145" y="640" width="130" height="60" as="geometry" />
        </mxCell>
        <mxCell id="w-EnV2-663KXfcH5xZw4-56" value="posedon" style="shape=rhombus;double=1;perimeter=rhombusPerimeter;whiteSpace=wrap;html=1;align=center;labelBackgroundColor=none;rounded=1;fillColor=#fff2cc;strokeColor=#d6b656;fontStyle=1;fontSize=22;fontColor=#000000;" parent="1" vertex="1">
          <mxGeometry x="-60" y="720" width="190" height="80" as="geometry" />
        </mxCell>
        <mxCell id="w-EnV2-663KXfcH5xZw4-57" value="" style="shape=link;html=1;rounded=1;exitX=0.689;exitY=0.981;exitDx=0;exitDy=0;labelBackgroundColor=none;fontColor=#000000;strokeColor=#457B9D;exitPerimeter=0;entryX=0.042;entryY=0.474;entryDx=0;entryDy=0;entryPerimeter=0;fontStyle=1;fontSize=22;align=center;strokeWidth=4;" parent="1" source="w-EnV2-663KXfcH5xZw4-55" target="w-EnV2-663KXfcH5xZw4-56" edge="1">
          <mxGeometry width="100" relative="1" as="geometry">
            <mxPoint x="310" y="890" as="sourcePoint" />
            <mxPoint x="-60" y="770" as="targetPoint" />
            <Array as="points" />
          </mxGeometry>
        </mxCell>
        <mxCell id="w-EnV2-663KXfcH5xZw4-58" value="Prefixi" style="ellipse;whiteSpace=wrap;html=1;align=center;labelBackgroundColor=none;rounded=1;fillColor=#A8DADC;strokeColor=#457B9D;fontColor=#000000;fontStyle=1;fontSize=22;" parent="1" vertex="1">
          <mxGeometry x="-140" y="530" width="130" height="70" as="geometry" />
        </mxCell>
        <mxCell id="w-EnV2-663KXfcH5xZw4-59" value="" style="endArrow=classic;html=1;rounded=1;exitX=0.5;exitY=0;exitDx=0;exitDy=0;entryX=0.5;entryY=1;entryDx=0;entryDy=0;labelBackgroundColor=none;fontColor=#000000;strokeColor=#457B9D;fontStyle=1;fontSize=22;align=center;strokeWidth=4;" parent="1" source="w-EnV2-663KXfcH5xZw4-55" target="w-EnV2-663KXfcH5xZw4-58" edge="1">
          <mxGeometry width="50" height="50" relative="1" as="geometry">
            <mxPoint x="440" y="870" as="sourcePoint" />
            <mxPoint x="660" y="1040" as="targetPoint" />
            <Array as="points" />
          </mxGeometry>
        </mxCell>
        <mxCell id="w-EnV2-663KXfcH5xZw4-60" value="Profesori" style="whiteSpace=wrap;html=1;align=center;labelBackgroundColor=none;rounded=1;fillColor=#f8cecc;strokeColor=#b85450;fontStyle=1;fontSize=22;fontColor=#000000;" parent="1" vertex="1">
          <mxGeometry x="210" y="1100" width="130" height="60" as="geometry" />
        </mxCell>
        <mxCell id="w-EnV2-663KXfcH5xZw4-63" value="IS A" style="triangle;whiteSpace=wrap;html=1;rotation=90;labelBackgroundColor=none;rounded=1;fillColor=#ffe6cc;strokeColor=#d79b00;fontStyle=1;fontSize=22;fontColor=#000000;align=center;" parent="1" vertex="1">
          <mxGeometry x="355" y="935" width="70" height="80" as="geometry" />
        </mxCell>
        <mxCell id="w-EnV2-663KXfcH5xZw4-64" value="" style="endArrow=none;html=1;rounded=1;exitX=0;exitY=0.5;exitDx=0;exitDy=0;entryX=0.5;entryY=1;entryDx=0;entryDy=0;labelBackgroundColor=none;fontColor=#000000;strokeColor=#457B9D;fontStyle=1;fontSize=22;align=center;strokeWidth=4;" parent="1" source="w-EnV2-663KXfcH5xZw4-63" target="w-EnV2-663KXfcH5xZw4-33" edge="1">
          <mxGeometry width="50" height="50" relative="1" as="geometry">
            <mxPoint x="380" y="900" as="sourcePoint" />
            <mxPoint x="430" y="850" as="targetPoint" />
          </mxGeometry>
        </mxCell>
        <mxCell id="w-EnV2-663KXfcH5xZw4-65" value="" style="endArrow=none;html=1;rounded=1;exitX=0.5;exitY=0;exitDx=0;exitDy=0;entryX=1;entryY=0.5;entryDx=0;entryDy=0;labelBackgroundColor=none;fontColor=#000000;strokeColor=#457B9D;fontStyle=1;fontSize=22;align=center;strokeWidth=4;" parent="1" source="w-EnV2-663KXfcH5xZw4-60" target="w-EnV2-663KXfcH5xZw4-63" edge="1">
          <mxGeometry width="50" height="50" relative="1" as="geometry">
            <mxPoint x="410" y="970" as="sourcePoint" />
            <mxPoint x="400" y="1040" as="targetPoint" />
          </mxGeometry>
        </mxCell>
        <mxCell id="w-EnV2-663KXfcH5xZw4-66" value="" style="endArrow=none;html=1;rounded=1;exitX=0.5;exitY=0;exitDx=0;exitDy=0;entryX=1;entryY=0.5;entryDx=0;entryDy=0;labelBackgroundColor=none;fontColor=#000000;strokeColor=#457B9D;fontStyle=1;fontSize=22;align=center;strokeWidth=4;" parent="1" source="w-EnV2-663KXfcH5xZw4-67" target="w-EnV2-663KXfcH5xZw4-63" edge="1">
          <mxGeometry width="50" height="50" relative="1" as="geometry">
            <mxPoint x="550" y="1090" as="sourcePoint" />
            <mxPoint x="410" y="1050" as="targetPoint" />
          </mxGeometry>
        </mxCell>
        <mxCell id="w-EnV2-663KXfcH5xZw4-67" value="Asistenti" style="whiteSpace=wrap;html=1;align=center;labelBackgroundColor=none;rounded=1;fillColor=#f8cecc;strokeColor=#b85450;fontStyle=1;fontSize=22;fontColor=#000000;" parent="1" vertex="1">
          <mxGeometry x="540" y="1250" width="150" height="70" as="geometry" />
        </mxCell>
        <mxCell id="w-EnV2-663KXfcH5xZw4-68" value="Ligjeratet e&amp;nbsp;&lt;br style=&quot;font-size: 22px;&quot;&gt;Doktorratures" style="ellipse;whiteSpace=wrap;html=1;labelBackgroundColor=none;rounded=1;fillColor=#A8DADC;strokeColor=#457B9D;fontColor=#000000;fontStyle=1;fontSize=22;align=center;" parent="1" vertex="1">
          <mxGeometry x="-70" y="1090" width="172.5" height="80" as="geometry" />
        </mxCell>
        <mxCell id="w-EnV2-663KXfcH5xZw4-71" value="" style="endArrow=classic;html=1;rounded=1;exitX=0;exitY=0.5;exitDx=0;exitDy=0;entryX=1;entryY=0.5;entryDx=0;entryDy=0;labelBackgroundColor=none;fontColor=#000000;strokeColor=#457B9D;fontStyle=1;fontSize=22;align=center;strokeWidth=4;" parent="1" source="w-EnV2-663KXfcH5xZw4-60" target="w-EnV2-663KXfcH5xZw4-68" edge="1">
          <mxGeometry width="50" height="50" relative="1" as="geometry">
            <mxPoint x="380" y="870" as="sourcePoint" />
            <mxPoint x="142" y="1022" as="targetPoint" />
          </mxGeometry>
        </mxCell>
        <mxCell id="w-EnV2-663KXfcH5xZw4-72" value="Perfshine" style="rhombus;whiteSpace=wrap;html=1;labelBackgroundColor=none;rounded=1;fillColor=#fff2cc;strokeColor=#d6b656;fontStyle=1;fontSize=22;fontColor=#000000;align=center;" parent="1" vertex="1">
          <mxGeometry x="970" y="400" width="150" height="90" as="geometry" />
        </mxCell>
        <mxCell id="w-EnV2-663KXfcH5xZw4-73" value="" style="endArrow=classic;html=1;rounded=1;exitX=0;exitY=0.5;exitDx=0;exitDy=0;entryX=0.982;entryY=0.93;entryDx=0;entryDy=0;labelBackgroundColor=none;fontColor=#000000;strokeColor=#457B9D;entryPerimeter=0;fontStyle=1;fontSize=22;align=center;strokeWidth=4;" parent="1" source="w-EnV2-663KXfcH5xZw4-72" target="w-EnV2-663KXfcH5xZw4-1" edge="1">
          <mxGeometry width="50" height="50" relative="1" as="geometry">
            <mxPoint x="780" y="420" as="sourcePoint" />
            <mxPoint x="630" y="310" as="targetPoint" />
          </mxGeometry>
        </mxCell>
        <mxCell id="w-EnV2-663KXfcH5xZw4-74" value="" style="endArrow=none;html=1;rounded=1;exitX=0.5;exitY=1;exitDx=0;exitDy=0;entryX=0.75;entryY=0;entryDx=0;entryDy=0;labelBackgroundColor=none;fontColor=#000000;strokeColor=#457B9D;fontStyle=1;fontSize=22;align=center;strokeWidth=3;" parent="1" source="w-EnV2-663KXfcH5xZw4-72" target="w-EnV2-663KXfcH5xZw4-75" edge="1">
          <mxGeometry width="50" height="50" relative="1" as="geometry">
            <mxPoint x="780" y="420" as="sourcePoint" />
            <mxPoint x="1260" y="1260" as="targetPoint" />
          </mxGeometry>
        </mxCell>
        <mxCell id="w-EnV2-663KXfcH5xZw4-75" value="Studenti" style="rounded=1;whiteSpace=wrap;html=1;labelBackgroundColor=none;fillColor=#f8cecc;strokeColor=#b85450;fontStyle=1;fontSize=22;fontColor=#000000;align=center;" parent="1" vertex="1">
          <mxGeometry x="940" y="1255" width="145" height="60" as="geometry" />
        </mxCell>
        <mxCell id="w-EnV2-663KXfcH5xZw4-76" value="" style="endArrow=classic;html=1;rounded=1;exitX=0.902;exitY=1.011;exitDx=0;exitDy=0;entryX=0;entryY=0;entryDx=0;entryDy=0;labelBackgroundColor=none;fontColor=#000000;strokeColor=#457B9D;exitPerimeter=0;fontStyle=1;fontSize=22;align=center;strokeWidth=4;" parent="1" source="w-EnV2-663KXfcH5xZw4-75" target="w-EnV2-663KXfcH5xZw4-78" edge="1">
          <mxGeometry width="50" height="50" relative="1" as="geometry">
            <mxPoint x="620" y="1160" as="sourcePoint" />
            <mxPoint x="1108.1999999999998" y="1192" as="targetPoint" />
            <Array as="points" />
          </mxGeometry>
        </mxCell>
        <mxCell id="w-EnV2-663KXfcH5xZw4-78" value="ID&amp;nbsp;&lt;br style=&quot;font-size: 22px;&quot;&gt;Studentit" style="ellipse;whiteSpace=wrap;html=1;align=center;fontStyle=5;labelBackgroundColor=none;rounded=1;fillColor=#A8DADC;strokeColor=#457B9D;fontColor=#000000;fontSize=22;" parent="1" vertex="1">
          <mxGeometry x="1245" y="1485" width="165" height="60" as="geometry" />
        </mxCell>
        <mxCell id="w-EnV2-663KXfcH5xZw4-79" value="Nota&amp;nbsp;&lt;br style=&quot;font-size: 22px;&quot;&gt;Mesatare" style="ellipse;whiteSpace=wrap;html=1;labelBackgroundColor=none;rounded=1;fillColor=#A8DADC;strokeColor=#457B9D;fontColor=#000000;fontStyle=1;fontSize=22;align=center;" parent="1" vertex="1">
          <mxGeometry x="1250" y="1235" width="150" height="70" as="geometry" />
        </mxCell>
        <mxCell id="w-EnV2-663KXfcH5xZw4-80" value="Emri" style="ellipse;whiteSpace=wrap;html=1;labelBackgroundColor=none;rounded=1;fillColor=#A8DADC;strokeColor=#457B9D;fontColor=#000000;fontStyle=1;fontSize=22;align=center;" parent="1" vertex="1">
          <mxGeometry x="1250" y="1395" width="130" height="70" as="geometry" />
        </mxCell>
        <mxCell id="w-EnV2-663KXfcH5xZw4-81" value="Mbiemri " style="ellipse;whiteSpace=wrap;html=1;labelBackgroundColor=none;rounded=1;fillColor=#A8DADC;strokeColor=#457B9D;fontColor=#000000;fontStyle=1;fontSize=22;align=center;" parent="1" vertex="1">
          <mxGeometry x="1245" y="1315" width="135" height="70" as="geometry" />
        </mxCell>
        <mxCell id="w-EnV2-663KXfcH5xZw4-85" value="" style="endArrow=classic;html=1;rounded=1;exitX=0.969;exitY=0.95;exitDx=0;exitDy=0;entryX=0;entryY=0.5;entryDx=0;entryDy=0;labelBackgroundColor=none;fontColor=#000000;strokeColor=#457B9D;exitPerimeter=0;fontStyle=1;fontSize=22;align=center;strokeWidth=4;" parent="1" source="w-EnV2-663KXfcH5xZw4-75" target="w-EnV2-663KXfcH5xZw4-80" edge="1">
          <mxGeometry width="50" height="50" relative="1" as="geometry">
            <mxPoint x="1210" y="1230" as="sourcePoint" />
            <mxPoint x="1070" y="1230" as="targetPoint" />
            <Array as="points" />
          </mxGeometry>
        </mxCell>
        <mxCell id="w-EnV2-663KXfcH5xZw4-86" value="" style="endArrow=classic;html=1;rounded=1;exitX=1;exitY=0.75;exitDx=0;exitDy=0;entryX=-0.005;entryY=0.434;entryDx=0;entryDy=0;labelBackgroundColor=none;fontColor=#000000;strokeColor=#457B9D;entryPerimeter=0;fontStyle=1;fontSize=22;align=center;strokeWidth=4;" parent="1" source="w-EnV2-663KXfcH5xZw4-75" target="w-EnV2-663KXfcH5xZw4-81" edge="1">
          <mxGeometry width="50" height="50" relative="1" as="geometry">
            <mxPoint x="1210" y="1260" as="sourcePoint" />
            <mxPoint x="1082" y="1322" as="targetPoint" />
            <Array as="points" />
          </mxGeometry>
        </mxCell>
        <mxCell id="w-EnV2-663KXfcH5xZw4-87" value="" style="endArrow=classic;html=1;rounded=1;exitX=1;exitY=0.5;exitDx=0;exitDy=0;entryX=0;entryY=0.5;entryDx=0;entryDy=0;labelBackgroundColor=none;fontColor=#000000;strokeColor=#457B9D;fontStyle=1;fontSize=22;align=center;strokeWidth=4;" parent="1" source="w-EnV2-663KXfcH5xZw4-75" target="w-EnV2-663KXfcH5xZw4-79" edge="1">
          <mxGeometry width="50" height="50" relative="1" as="geometry">
            <mxPoint x="1270" y="1260" as="sourcePoint" />
            <mxPoint x="1250" y="1360" as="targetPoint" />
            <Array as="points" />
          </mxGeometry>
        </mxCell>
        <mxCell id="w-EnV2-663KXfcH5xZw4-88" value="" style="endArrow=classic;html=1;rounded=1;exitX=1;exitY=0.25;exitDx=0;exitDy=0;labelBackgroundColor=none;fontColor=#000000;strokeColor=#457B9D;entryX=0;entryY=1;entryDx=0;entryDy=0;fontStyle=1;fontSize=22;align=center;strokeWidth=4;" parent="1" source="w-EnV2-663KXfcH5xZw4-75" target="RLaY5anfLTxkuxkObCUo-8" edge="1">
          <mxGeometry width="50" height="50" relative="1" as="geometry">
            <mxPoint x="1330" y="1260" as="sourcePoint" />
            <mxPoint x="1250" y="1190" as="targetPoint" />
            <Array as="points" />
          </mxGeometry>
        </mxCell>
        <mxCell id="w-EnV2-663KXfcH5xZw4-89" value="Numri&amp;nbsp;&amp;nbsp;&lt;br style=&quot;font-size: 22px;&quot;&gt;Telefonit" style="ellipse;shape=doubleEllipse;margin=3;whiteSpace=wrap;html=1;align=center;labelBackgroundColor=none;rounded=1;fillColor=#A8DADC;strokeColor=#457B9D;fontColor=#000000;fontStyle=1;fontSize=22;" parent="1" vertex="1">
          <mxGeometry x="1237.5" y="1050" width="162.5" height="70" as="geometry" />
        </mxCell>
        <mxCell id="w-EnV2-663KXfcH5xZw4-90" value="" style="endArrow=classic;html=1;rounded=1;labelBackgroundColor=none;fontColor=#000000;strokeColor=#457B9D;exitX=0.981;exitY=0.061;exitDx=0;exitDy=0;exitPerimeter=0;fontStyle=1;fontSize=22;align=center;strokeWidth=4;" parent="1" source="w-EnV2-663KXfcH5xZw4-75" target="w-EnV2-663KXfcH5xZw4-89" edge="1">
          <mxGeometry width="50" height="50" relative="1" as="geometry">
            <mxPoint x="1070" y="1260" as="sourcePoint" />
            <mxPoint x="1440" y="1250" as="targetPoint" />
            <Array as="points" />
          </mxGeometry>
        </mxCell>
        <mxCell id="w-EnV2-663KXfcH5xZw4-91" value="Ndihmon ne projekt" style="rhombus;whiteSpace=wrap;html=1;labelBackgroundColor=none;rounded=1;fillColor=#fff2cc;strokeColor=#d6b656;fontStyle=1;fontSize=22;fontColor=#000000;align=center;" parent="1" vertex="1">
          <mxGeometry x="725" y="1240" width="180" height="90" as="geometry" />
        </mxCell>
        <mxCell id="w-EnV2-663KXfcH5xZw4-95" value="Monitorohet" style="rhombus;whiteSpace=wrap;html=1;direction=south;labelBackgroundColor=none;rounded=1;fillColor=#fff2cc;strokeColor=#d6b656;fontStyle=1;fontSize=22;fontColor=#000000;align=center;" parent="1" vertex="1">
          <mxGeometry x="200" y="1210" width="155" height="95" as="geometry" />
        </mxCell>
        <mxCell id="w-EnV2-663KXfcH5xZw4-98" value="" style="endArrow=none;html=1;rounded=1;exitX=0.035;exitY=0.5;exitDx=0;exitDy=0;entryX=0.5;entryY=1;entryDx=0;entryDy=0;labelBackgroundColor=none;fontColor=#000000;strokeColor=#457B9D;exitPerimeter=0;fontStyle=1;fontSize=22;align=center;strokeWidth=4;" parent="1" source="w-EnV2-663KXfcH5xZw4-95" target="w-EnV2-663KXfcH5xZw4-60" edge="1">
          <mxGeometry width="50" height="50" relative="1" as="geometry">
            <mxPoint x="430" y="1310" as="sourcePoint" />
            <mxPoint x="480" y="1260" as="targetPoint" />
          </mxGeometry>
        </mxCell>
        <mxCell id="w-EnV2-663KXfcH5xZw4-99" value="" style="endArrow=none;html=1;rounded=1;exitX=0.501;exitY=0.032;exitDx=0;exitDy=0;entryX=0;entryY=0.25;entryDx=0;entryDy=0;labelBackgroundColor=none;fontColor=#000000;strokeColor=#457B9D;exitPerimeter=0;fontStyle=1;fontSize=22;align=center;strokeWidth=4;" parent="1" source="w-EnV2-663KXfcH5xZw4-95" target="w-EnV2-663KXfcH5xZw4-127" edge="1">
          <mxGeometry width="50" height="50" relative="1" as="geometry">
            <mxPoint x="285" y="1253" as="sourcePoint" />
            <mxPoint x="470" y="1226" as="targetPoint" />
          </mxGeometry>
        </mxCell>
        <mxCell id="w-EnV2-663KXfcH5xZw4-101" value="Menaxhon&lt;br style=&quot;font-size: 22px;&quot;&gt;" style="rhombus;whiteSpace=wrap;html=1;labelBackgroundColor=none;rounded=1;fillColor=#A8DADC;strokeColor=#457B9D;fontColor=#000000;fontStyle=1;fontSize=22;align=center;" parent="1" vertex="1">
          <mxGeometry x="890" y="1130" width="150" height="80" as="geometry" />
        </mxCell>
        <mxCell id="w-EnV2-663KXfcH5xZw4-103" value="" style="endArrow=none;html=1;rounded=1;exitX=0.25;exitY=0;exitDx=0;exitDy=0;entryX=0.548;entryY=0.959;entryDx=0;entryDy=0;labelBackgroundColor=none;fontColor=#000000;strokeColor=#457B9D;entryPerimeter=0;fontStyle=1;fontSize=22;align=center;strokeWidth=4;" parent="1" source="w-EnV2-663KXfcH5xZw4-75" target="w-EnV2-663KXfcH5xZw4-101" edge="1">
          <mxGeometry width="50" height="50" relative="1" as="geometry">
            <mxPoint x="800" y="1050" as="sourcePoint" />
            <mxPoint x="910" y="1120" as="targetPoint" />
          </mxGeometry>
        </mxCell>
        <mxCell id="w-EnV2-663KXfcH5xZw4-104" value="" style="endArrow=classic;html=1;rounded=1;exitX=0.279;exitY=0.752;exitDx=0;exitDy=0;entryX=0.06;entryY=0.01;entryDx=0;entryDy=0;labelBackgroundColor=none;fontColor=#000000;strokeColor=#457B9D;entryPerimeter=0;exitPerimeter=0;fontStyle=1;fontSize=22;align=center;strokeWidth=4;" parent="1" source="w-EnV2-663KXfcH5xZw4-101" target="w-EnV2-663KXfcH5xZw4-75" edge="1">
          <mxGeometry width="50" height="50" relative="1" as="geometry">
            <mxPoint x="800" y="1050" as="sourcePoint" />
            <mxPoint x="1030" y="1060" as="targetPoint" />
            <Array as="points" />
          </mxGeometry>
        </mxCell>
        <mxCell id="w-EnV2-663KXfcH5xZw4-105" value="menaxhon&lt;br style=&quot;font-size: 22px;&quot;&gt;" style="rhombus;whiteSpace=wrap;html=1;labelBackgroundColor=none;rounded=1;fillColor=#fff2cc;strokeColor=#d6b656;fontStyle=1;fontSize=22;fontColor=#000000;align=center;" parent="1" vertex="1">
          <mxGeometry x="340" y="1265" width="140" height="70" as="geometry" />
        </mxCell>
        <mxCell id="w-EnV2-663KXfcH5xZw4-106" value="" style="endArrow=none;html=1;rounded=1;entryX=0;entryY=0.25;entryDx=0;entryDy=0;labelBackgroundColor=none;fontColor=#000000;strokeColor=#457B9D;exitX=0.501;exitY=0.041;exitDx=0;exitDy=0;exitPerimeter=0;fontStyle=1;fontSize=22;align=center;strokeWidth=4;" parent="1" source="w-EnV2-663KXfcH5xZw4-105" target="w-EnV2-663KXfcH5xZw4-67" edge="1">
          <mxGeometry width="50" height="50" relative="1" as="geometry">
            <mxPoint x="450" y="1273" as="sourcePoint" />
            <mxPoint x="800" y="1150" as="targetPoint" />
            <Array as="points" />
          </mxGeometry>
        </mxCell>
        <mxCell id="w-EnV2-663KXfcH5xZw4-107" value="" style="endArrow=classic;html=1;rounded=1;exitX=1;exitY=0.5;exitDx=0;exitDy=0;labelBackgroundColor=none;fontColor=#000000;strokeColor=#457B9D;fontStyle=1;fontSize=22;align=center;strokeWidth=4;" parent="1" source="w-EnV2-663KXfcH5xZw4-105" edge="1">
          <mxGeometry width="50" height="50" relative="1" as="geometry">
            <mxPoint x="750" y="1200" as="sourcePoint" />
            <mxPoint x="540" y="1305" as="targetPoint" />
            <Array as="points" />
          </mxGeometry>
        </mxCell>
        <mxCell id="w-EnV2-663KXfcH5xZw4-109" value="&lt;br style=&quot;font-size: 22px;&quot;&gt;&lt;span style=&quot;font-size: 22px; font-family: Calibri, sans-serif;&quot; lang=&quot;SQ&quot;&gt;Diploma e Programit Studimor&lt;/span&gt;&lt;br style=&quot;font-size: 22px;&quot;&gt;&lt;br style=&quot;font-size: 22px;&quot;&gt;&lt;br style=&quot;font-size: 22px;&quot;&gt;" style="rounded=1;whiteSpace=wrap;html=1;labelBackgroundColor=none;fillColor=#f8cecc;strokeColor=#b85450;fontStyle=1;fontSize=22;fontColor=#000000;align=center;" parent="1" vertex="1">
          <mxGeometry x="-70" y="1340" width="250" height="85" as="geometry" />
        </mxCell>
        <mxCell id="w-EnV2-663KXfcH5xZw4-110" value="Sistemi&lt;br style=&quot;font-size: 22px;&quot;&gt;i profesorit" style="rhombus;whiteSpace=wrap;html=1;labelBackgroundColor=none;rounded=1;fillColor=#fff2cc;strokeColor=#d6b656;fontStyle=1;fontSize=22;fontColor=#000000;align=center;" parent="1" vertex="1">
          <mxGeometry x="-32.5" y="1200" width="182.5" height="100" as="geometry" />
        </mxCell>
        <mxCell id="w-EnV2-663KXfcH5xZw4-113" value="" style="endArrow=none;html=1;rounded=1;exitX=0.5;exitY=0;exitDx=0;exitDy=0;entryX=0.5;entryY=1;entryDx=0;entryDy=0;labelBackgroundColor=none;fontColor=#000000;strokeColor=#457B9D;fontStyle=1;fontSize=22;align=center;strokeWidth=4;" parent="1" source="w-EnV2-663KXfcH5xZw4-109" target="w-EnV2-663KXfcH5xZw4-110" edge="1">
          <mxGeometry width="50" height="50" relative="1" as="geometry">
            <mxPoint x="-10" y="1450" as="sourcePoint" />
            <mxPoint x="80" y="1360" as="targetPoint" />
          </mxGeometry>
        </mxCell>
        <mxCell id="w-EnV2-663KXfcH5xZw4-114" value="Emri i diplomes&amp;nbsp;&lt;br style=&quot;font-size: 22px;&quot;&gt;Profesorit&lt;br style=&quot;font-size: 22px;&quot;&gt;" style="ellipse;whiteSpace=wrap;html=1;labelBackgroundColor=none;rounded=1;fillColor=#A8DADC;strokeColor=#457B9D;fontColor=#000000;fontStyle=1;fontSize=22;align=center;" parent="1" vertex="1">
          <mxGeometry x="-400" y="1345" width="180" height="80" as="geometry" />
        </mxCell>
        <mxCell id="w-EnV2-663KXfcH5xZw4-115" value="" style="endArrow=classic;html=1;rounded=1;exitX=0;exitY=0.5;exitDx=0;exitDy=0;labelBackgroundColor=none;fontColor=#000000;strokeColor=#457B9D;fontStyle=1;fontSize=22;align=center;strokeWidth=4;" parent="1" source="w-EnV2-663KXfcH5xZw4-109" target="w-EnV2-663KXfcH5xZw4-114" edge="1">
          <mxGeometry width="50" height="50" relative="1" as="geometry">
            <mxPoint x="40" y="1350" as="sourcePoint" />
            <mxPoint x="90" y="1300" as="targetPoint" />
          </mxGeometry>
        </mxCell>
        <mxCell id="w-EnV2-663KXfcH5xZw4-116" value="Programi&amp;nbsp;&lt;br style=&quot;font-size: 22px;&quot;&gt;Studimor" style="ellipse;whiteSpace=wrap;html=1;labelBackgroundColor=none;rounded=1;fillColor=#A8DADC;strokeColor=#457B9D;fontColor=#000000;fontStyle=1;fontSize=22;align=center;" parent="1" vertex="1">
          <mxGeometry x="-350" y="1435" width="160" height="80" as="geometry" />
        </mxCell>
        <mxCell id="w-EnV2-663KXfcH5xZw4-117" value="" style="endArrow=classic;html=1;rounded=1;entryX=1;entryY=0;entryDx=0;entryDy=0;exitX=0;exitY=0.75;exitDx=0;exitDy=0;labelBackgroundColor=none;fontColor=#000000;strokeColor=#457B9D;fontStyle=1;fontSize=22;align=center;strokeWidth=4;" parent="1" source="w-EnV2-663KXfcH5xZw4-109" target="w-EnV2-663KXfcH5xZw4-116" edge="1">
          <mxGeometry width="50" height="50" relative="1" as="geometry">
            <mxPoint x="-110" y="1540" as="sourcePoint" />
            <mxPoint x="-270" y="1470" as="targetPoint" />
          </mxGeometry>
        </mxCell>
        <mxCell id="w-EnV2-663KXfcH5xZw4-119" value="" style="endArrow=classic;html=1;rounded=1;entryX=0.675;entryY=0.016;entryDx=0;entryDy=0;exitX=0.067;exitY=1.001;exitDx=0;exitDy=0;exitPerimeter=0;entryPerimeter=0;labelBackgroundColor=none;fontColor=#000000;strokeColor=#457B9D;fontStyle=1;fontSize=22;align=center;strokeWidth=4;" parent="1" source="w-EnV2-663KXfcH5xZw4-109" target="w-EnV2-663KXfcH5xZw4-120" edge="1">
          <mxGeometry width="50" height="50" relative="1" as="geometry">
            <mxPoint x="-90" y="1485" as="sourcePoint" />
            <mxPoint x="-157.57359312880726" y="1581.7157287525383" as="targetPoint" />
          </mxGeometry>
        </mxCell>
        <mxCell id="w-EnV2-663KXfcH5xZw4-120" value="Numri i&amp;nbsp;&lt;br style=&quot;font-size: 22px;&quot;&gt;Kredive&amp;nbsp;&lt;br style=&quot;font-size: 22px;&quot;&gt;Akademike" style="ellipse;shape=doubleEllipse;margin=3;whiteSpace=wrap;html=1;align=center;labelBackgroundColor=none;rounded=1;fillColor=#A8DADC;strokeColor=#457B9D;fontColor=#000000;fontStyle=1;fontSize=22;" parent="1" vertex="1">
          <mxGeometry x="-212.5" y="1500" width="182.5" height="80" as="geometry" />
        </mxCell>
        <mxCell id="w-EnV2-663KXfcH5xZw4-123" value="Indeksi&amp;nbsp;&lt;br style=&quot;font-size: 22px;&quot;&gt;i diplomes&lt;br style=&quot;font-size: 22px;&quot;&gt;" style="ellipse;whiteSpace=wrap;html=1;align=center;fontStyle=5;labelBackgroundColor=none;rounded=1;fillColor=#A8DADC;strokeColor=#457B9D;fontColor=#000000;fontSize=22;" parent="1" vertex="1">
          <mxGeometry x="-350" y="1250" width="190" height="80" as="geometry" />
        </mxCell>
        <mxCell id="w-EnV2-663KXfcH5xZw4-124" value="" style="endArrow=classic;html=1;rounded=1;exitX=0;exitY=0.25;exitDx=0;exitDy=0;entryX=1;entryY=1;entryDx=0;entryDy=0;labelBackgroundColor=none;fontColor=#000000;strokeColor=#457B9D;fontStyle=1;fontSize=22;align=center;strokeWidth=4;" parent="1" source="w-EnV2-663KXfcH5xZw4-109" target="w-EnV2-663KXfcH5xZw4-123" edge="1">
          <mxGeometry width="50" height="50" relative="1" as="geometry">
            <mxPoint x="-90" y="1460" as="sourcePoint" />
            <mxPoint x="-270" y="1468" as="targetPoint" />
          </mxGeometry>
        </mxCell>
        <mxCell id="w-EnV2-663KXfcH5xZw4-125" value="Programi Studimor&lt;br style=&quot;font-size: 22px;&quot;&gt;i Studentit" style="rhombus;whiteSpace=wrap;html=1;labelBackgroundColor=none;rounded=1;fillColor=#fff2cc;strokeColor=#d6b656;fontStyle=1;fontSize=22;fontColor=#000000;align=center;" parent="1" vertex="1">
          <mxGeometry x="810" y="1380" width="260" height="150" as="geometry" />
        </mxCell>
        <mxCell id="w-EnV2-663KXfcH5xZw4-126" value="" style="endArrow=none;html=1;rounded=1;entryX=0;entryY=1;entryDx=0;entryDy=0;labelBackgroundColor=none;fontColor=#000000;strokeColor=#457B9D;exitX=0.5;exitY=0;exitDx=0;exitDy=0;fontStyle=1;fontSize=22;align=center;strokeWidth=4;" parent="1" source="w-EnV2-663KXfcH5xZw4-125" target="w-EnV2-663KXfcH5xZw4-75" edge="1">
          <mxGeometry width="50" height="50" relative="1" as="geometry">
            <mxPoint x="955" y="1410" as="sourcePoint" />
            <mxPoint x="990" y="1420" as="targetPoint" />
          </mxGeometry>
        </mxCell>
        <mxCell id="w-EnV2-663KXfcH5xZw4-129" value="Internship e&amp;nbsp;&lt;br style=&quot;font-size: 22px;&quot;&gt;Studime" style="rounded=1;whiteSpace=wrap;html=1;labelBackgroundColor=none;fillColor=#f8cecc;strokeColor=#b85450;fontStyle=1;fontSize=22;fontColor=#000000;align=center;" parent="1" vertex="1">
          <mxGeometry x="851.25" y="1575" width="177.5" height="70" as="geometry" />
        </mxCell>
        <mxCell id="w-EnV2-663KXfcH5xZw4-130" value="" style="endArrow=none;html=1;rounded=1;exitX=0.5;exitY=1;exitDx=0;exitDy=0;entryX=0.5;entryY=0;entryDx=0;entryDy=0;labelBackgroundColor=none;fontColor=#000000;strokeColor=#457B9D;fontStyle=1;fontSize=22;align=center;strokeWidth=4;" parent="1" source="w-EnV2-663KXfcH5xZw4-125" target="w-EnV2-663KXfcH5xZw4-129" edge="1">
          <mxGeometry width="50" height="50" relative="1" as="geometry">
            <mxPoint x="955" y="1540" as="sourcePoint" />
            <mxPoint x="960" y="1330" as="targetPoint" />
          </mxGeometry>
        </mxCell>
        <mxCell id="w-EnV2-663KXfcH5xZw4-131" value="Praktika&lt;br style=&quot;font-size: 22px;&quot;&gt;Profesionale" style="ellipse;whiteSpace=wrap;html=1;labelBackgroundColor=none;rounded=1;fillColor=#A8DADC;strokeColor=#457B9D;fontColor=#000000;fontStyle=1;fontSize=22;align=center;" parent="1" vertex="1">
          <mxGeometry x="770" y="1690" width="170" height="80" as="geometry" />
        </mxCell>
        <mxCell id="w-EnV2-663KXfcH5xZw4-132" value="Mundesi Punesimi" style="ellipse;whiteSpace=wrap;html=1;labelBackgroundColor=none;rounded=1;fillColor=#A8DADC;strokeColor=#457B9D;fontColor=#000000;fontStyle=1;fontSize=22;align=center;" parent="1" vertex="1">
          <mxGeometry x="955" y="1680" width="155" height="80" as="geometry" />
        </mxCell>
        <mxCell id="w-EnV2-663KXfcH5xZw4-133" value="" style="endArrow=classic;html=1;rounded=1;exitX=1.001;exitY=0.859;exitDx=0;exitDy=0;labelBackgroundColor=none;fontColor=#000000;strokeColor=#457B9D;entryX=0.5;entryY=0;entryDx=0;entryDy=0;exitPerimeter=0;fontStyle=1;fontSize=22;align=center;strokeWidth=4;" parent="1" source="w-EnV2-663KXfcH5xZw4-129" target="w-EnV2-663KXfcH5xZw4-132" edge="1">
          <mxGeometry width="50" height="50" relative="1" as="geometry">
            <mxPoint x="990" y="1330" as="sourcePoint" />
            <mxPoint x="1275" y="1560" as="targetPoint" />
            <Array as="points" />
          </mxGeometry>
        </mxCell>
        <mxCell id="w-EnV2-663KXfcH5xZw4-134" value="" style="endArrow=classic;html=1;rounded=1;exitX=-0.002;exitY=0.928;exitDx=0;exitDy=0;entryX=0.5;entryY=0;entryDx=0;entryDy=0;labelBackgroundColor=none;fontColor=#000000;strokeColor=#457B9D;exitPerimeter=0;fontStyle=1;fontSize=22;align=center;strokeWidth=4;" parent="1" source="w-EnV2-663KXfcH5xZw4-129" target="w-EnV2-663KXfcH5xZw4-131" edge="1">
          <mxGeometry width="50" height="50" relative="1" as="geometry">
            <mxPoint x="1038" y="1715" as="sourcePoint" />
            <mxPoint x="1145" y="1715" as="targetPoint" />
            <Array as="points" />
          </mxGeometry>
        </mxCell>
        <mxCell id="WIk89QahGkB0wBzJT0tM-27" style="rounded=1;orthogonalLoop=1;jettySize=auto;html=1;labelBackgroundColor=none;fontColor=#000000;strokeColor=#457B9D;fontStyle=1;fontSize=22;align=center;strokeWidth=4;" parent="1" source="WIk89QahGkB0wBzJT0tM-2" target="WIk89QahGkB0wBzJT0tM-6" edge="1">
          <mxGeometry relative="1" as="geometry" />
        </mxCell>
        <mxCell id="WIk89QahGkB0wBzJT0tM-2" value="Lendet" style="rounded=1;whiteSpace=wrap;html=1;labelBackgroundColor=none;fillColor=#f8cecc;strokeColor=#b85450;fontStyle=1;fontSize=22;fontColor=#000000;align=center;" parent="1" vertex="1">
          <mxGeometry x="1410" y="1557.5" width="150" height="60" as="geometry" />
        </mxCell>
        <mxCell id="WIk89QahGkB0wBzJT0tM-6" value="Emri i lendes" style="ellipse;whiteSpace=wrap;html=1;labelBackgroundColor=none;rounded=1;fillColor=#A8DADC;strokeColor=#457B9D;fontColor=#000000;fontStyle=1;fontSize=22;align=center;" parent="1" vertex="1">
          <mxGeometry x="1670" y="1590" width="160" height="80" as="geometry" />
        </mxCell>
        <mxCell id="WIk89QahGkB0wBzJT0tM-7" value="Numri i kredive" style="ellipse;whiteSpace=wrap;html=1;labelBackgroundColor=none;rounded=1;fillColor=#A8DADC;strokeColor=#457B9D;fontColor=#000000;fontStyle=1;fontSize=22;align=center;" parent="1" vertex="1">
          <mxGeometry x="1655" y="1495" width="175" height="80" as="geometry" />
        </mxCell>
        <mxCell id="WIk89QahGkB0wBzJT0tM-8" value="Numri i lendes" style="ellipse;whiteSpace=wrap;html=1;labelBackgroundColor=none;rounded=1;fillColor=#A8DADC;strokeColor=#457B9D;fontColor=#000000;fontStyle=1;fontSize=22;align=center;" parent="1" vertex="1">
          <mxGeometry x="1590" y="1405" width="170" height="80" as="geometry" />
        </mxCell>
        <mxCell id="WIk89QahGkB0wBzJT0tM-44" value="ndimojne ne organizim" style="rhombus;whiteSpace=wrap;html=1;strokeColor=#d6b656;fillColor=#fff2cc;labelBackgroundColor=none;fontStyle=1;fontSize=22;fontColor=#000000;align=center;" parent="1" vertex="1">
          <mxGeometry x="8.5" y="380" width="201.5" height="80" as="geometry" />
        </mxCell>
        <mxCell id="WIk89QahGkB0wBzJT0tM-48" value="ligjeron" style="rhombus;whiteSpace=wrap;html=1;strokeColor=#d6b656;fillColor=#fff2cc;fontStyle=1;fontSize=22;fontColor=#000000;align=center;" parent="1" vertex="1">
          <mxGeometry x="1350" y="770" width="145" height="80" as="geometry" />
        </mxCell>
        <mxCell id="WIk89QahGkB0wBzJT0tM-76" value="" style="endArrow=none;html=1;rounded=0;strokeColor=#457B9D;fontColor=#000000;fillColor=#A8DADC;exitX=0;exitY=0.25;exitDx=0;exitDy=0;entryX=0.5;entryY=1;entryDx=0;entryDy=0;fontStyle=1;fontSize=22;align=center;strokeWidth=4;" parent="1" source="w-EnV2-663KXfcH5xZw4-18" target="WIk89QahGkB0wBzJT0tM-44" edge="1">
          <mxGeometry width="50" height="50" relative="1" as="geometry">
            <mxPoint x="-30" y="470" as="sourcePoint" />
            <mxPoint x="20" y="420" as="targetPoint" />
          </mxGeometry>
        </mxCell>
        <mxCell id="WIk89QahGkB0wBzJT0tM-82" value="Pjesemarres" style="rhombus;whiteSpace=wrap;html=1;strokeColor=#d6b656;fillColor=#fff2cc;fontStyle=1;fontSize=22;fontColor=#000000;align=center;" parent="1" vertex="1">
          <mxGeometry x="1075" y="830" width="170" height="80" as="geometry" />
        </mxCell>
        <mxCell id="WIk89QahGkB0wBzJT0tM-85" value="" style="endArrow=none;html=1;rounded=0;strokeColor=#457B9D;fontColor=#000000;fillColor=#A8DADC;entryX=0.5;entryY=1;entryDx=0;entryDy=0;exitX=0.861;exitY=0;exitDx=0;exitDy=0;exitPerimeter=0;fontStyle=1;fontSize=22;align=center;strokeWidth=4;" parent="1" source="w-EnV2-663KXfcH5xZw4-75" target="WIk89QahGkB0wBzJT0tM-82" edge="1">
          <mxGeometry width="50" height="50" relative="1" as="geometry">
            <mxPoint x="1010" y="1260" as="sourcePoint" />
            <mxPoint x="1060" y="1210" as="targetPoint" />
          </mxGeometry>
        </mxCell>
        <mxCell id="WIk89QahGkB0wBzJT0tM-88" value="" style="endArrow=none;html=1;rounded=0;strokeColor=#457B9D;fontColor=#000000;fillColor=#A8DADC;entryX=0.109;entryY=0.581;entryDx=0;entryDy=0;entryPerimeter=0;exitX=1;exitY=0.25;exitDx=0;exitDy=0;fontStyle=1;fontSize=22;align=center;strokeWidth=4;" parent="1" source="w-EnV2-663KXfcH5xZw4-60" target="WIk89QahGkB0wBzJT0tM-82" edge="1">
          <mxGeometry width="50" height="50" relative="1" as="geometry">
            <mxPoint x="340" y="1110" as="sourcePoint" />
            <mxPoint x="1300" y="920" as="targetPoint" />
          </mxGeometry>
        </mxCell>
        <mxCell id="3tJn8OcnGSbB1yrTGc8p-6" style="rounded=1;orthogonalLoop=1;jettySize=auto;html=1;exitX=1;exitY=1;exitDx=0;exitDy=0;entryX=0.5;entryY=0;entryDx=0;entryDy=0;labelBackgroundColor=none;fontColor=#000000;strokeColor=#457B9D;fontStyle=1;fontSize=22;align=center;strokeWidth=4;" parent="1" source="3tJn8OcnGSbB1yrTGc8p-12" target="9WCzD4UbaEJ1Sy0KgEHO-1" edge="1">
          <mxGeometry relative="1" as="geometry">
            <mxPoint x="682.5" y="1680" as="targetPoint" />
            <mxPoint x="155" y="1850" as="sourcePoint" />
          </mxGeometry>
        </mxCell>
        <mxCell id="3tJn8OcnGSbB1yrTGc8p-7" style="rounded=1;orthogonalLoop=1;jettySize=auto;html=1;fontColor=#000000;labelBackgroundColor=none;strokeColor=#457B9D;exitX=0;exitY=1;exitDx=0;exitDy=0;entryX=0.5;entryY=0;entryDx=0;entryDy=0;fontStyle=1;fontSize=22;align=center;strokeWidth=4;" parent="1" source="3tJn8OcnGSbB1yrTGc8p-12" target="3tJn8OcnGSbB1yrTGc8p-8" edge="1">
          <mxGeometry relative="1" as="geometry">
            <mxPoint x="124.05447371055243" y="1903.1996790307644" as="targetPoint" />
            <mxPoint x="143.8417143010838" y="1850" as="sourcePoint" />
          </mxGeometry>
        </mxCell>
        <mxCell id="3tJn8OcnGSbB1yrTGc8p-8" value="Numri i asistenteve" style="ellipse;whiteSpace=wrap;html=1;labelBackgroundColor=none;rounded=1;fillColor=#A8DADC;strokeColor=#457B9D;fontColor=#000000;fontStyle=1;fontSize=22;align=center;" parent="1" vertex="1">
          <mxGeometry x="450" y="1580" width="160" height="80" as="geometry" />
        </mxCell>
        <mxCell id="3tJn8OcnGSbB1yrTGc8p-10" value="" style="endArrow=none;html=1;rounded=0;strokeColor=#457B9D;fontColor=#000000;fillColor=#A8DADC;entryX=0.5;entryY=1;entryDx=0;entryDy=0;exitX=0.5;exitY=0;exitDx=0;exitDy=0;fontStyle=1;fontSize=22;align=center;strokeWidth=4;" parent="1" source="3tJn8OcnGSbB1yrTGc8p-12" target="3tJn8OcnGSbB1yrTGc8p-11" edge="1">
          <mxGeometry width="50" height="50" relative="1" as="geometry">
            <mxPoint x="230" y="1810" as="sourcePoint" />
            <mxPoint x="388.00000000000045" y="1684" as="targetPoint" />
          </mxGeometry>
        </mxCell>
        <mxCell id="3tJn8OcnGSbB1yrTGc8p-11" value="Ndjeke" style="shape=rhombus;double=1;perimeter=rhombusPerimeter;whiteSpace=wrap;html=1;align=center;fillColor=#fff2cc;strokeColor=#d6b656;fontStyle=1;fontSize=22;fontColor=#000000;" parent="1" vertex="1">
          <mxGeometry x="535" y="1375" width="160" height="60" as="geometry" />
        </mxCell>
        <mxCell id="3tJn8OcnGSbB1yrTGc8p-12" value="Ligjerata" style="shape=ext;margin=3;double=1;whiteSpace=wrap;html=1;align=center;fontStyle=1;fontSize=22;fontColor=#ffffff;fillColor=#6a00ff;strokeColor=#3700CC;" parent="1" vertex="1">
          <mxGeometry x="530" y="1467.5" width="170" height="65" as="geometry" />
        </mxCell>
        <mxCell id="3tJn8OcnGSbB1yrTGc8p-18" value="" style="endArrow=classic;html=1;rounded=1;exitX=1;exitY=0.5;exitDx=0;exitDy=0;labelBackgroundColor=none;fontColor=#000000;strokeColor=#457B9D;fontStyle=1;fontSize=22;align=center;strokeWidth=4;" parent="1" source="WIk89QahGkB0wBzJT0tM-44" edge="1">
          <mxGeometry width="50" height="50" relative="1" as="geometry">
            <mxPoint x="350" y="610" as="sourcePoint" />
            <mxPoint x="340" y="430" as="targetPoint" />
          </mxGeometry>
        </mxCell>
        <mxCell id="3tJn8OcnGSbB1yrTGc8p-19" value="" style="endArrow=classic;html=1;rounded=1;exitX=1;exitY=0.75;exitDx=0;exitDy=0;entryX=0;entryY=0;entryDx=0;entryDy=0;labelBackgroundColor=none;fontColor=#000000;strokeColor=#457B9D;fontStyle=1;fontSize=22;align=center;strokeWidth=4;" parent="1" source="w-EnV2-663KXfcH5xZw4-33" target="w-EnV2-663KXfcH5xZw4-42" edge="1">
          <mxGeometry width="50" height="50" relative="1" as="geometry">
            <mxPoint x="470" y="833" as="sourcePoint" />
            <mxPoint x="705" y="895" as="targetPoint" />
            <Array as="points" />
          </mxGeometry>
        </mxCell>
        <mxCell id="3tJn8OcnGSbB1yrTGc8p-21" value="" style="endArrow=none;html=1;rounded=1;labelBackgroundColor=none;fontColor=#000000;strokeColor=#457B9D;exitX=1;exitY=0.25;exitDx=0;exitDy=0;entryX=0;entryY=0.5;entryDx=0;entryDy=0;fontStyle=1;fontSize=22;align=center;strokeWidth=3;" parent="1" source="w-EnV2-663KXfcH5xZw4-33" target="WIk89QahGkB0wBzJT0tM-48" edge="1">
          <mxGeometry width="50" height="50" relative="1" as="geometry">
            <mxPoint x="1937" y="845" as="sourcePoint" />
            <mxPoint x="1760" y="730" as="targetPoint" />
          </mxGeometry>
        </mxCell>
        <mxCell id="3tJn8OcnGSbB1yrTGc8p-22" value="" style="endArrow=none;html=1;rounded=1;exitX=1;exitY=0.5;exitDx=0;exitDy=0;labelBackgroundColor=none;fontColor=#000000;strokeColor=#457B9D;entryX=0.5;entryY=0;entryDx=0;entryDy=0;fontStyle=1;fontSize=22;align=center;strokeWidth=4;" parent="1" source="WIk89QahGkB0wBzJT0tM-48" target="WIk89QahGkB0wBzJT0tM-2" edge="1">
          <mxGeometry width="50" height="50" relative="1" as="geometry">
            <mxPoint x="1938" y="775" as="sourcePoint" />
            <mxPoint x="1918" y="1820" as="targetPoint" />
            <Array as="points" />
          </mxGeometry>
        </mxCell>
        <mxCell id="3tJn8OcnGSbB1yrTGc8p-23" value="Detajet e&amp;nbsp;&lt;br style=&quot;font-size: 22px;&quot;&gt;kontaktit" style="ellipse;whiteSpace=wrap;html=1;labelBackgroundColor=none;rounded=1;fillColor=#A8DADC;strokeColor=#457B9D;fontColor=#000000;fontStyle=1;fontSize=22;align=center;" parent="1" vertex="1">
          <mxGeometry x="32.5" y="260" width="137.5" height="80" as="geometry" />
        </mxCell>
        <mxCell id="3tJn8OcnGSbB1yrTGc8p-24" value="" style="endArrow=classic;html=1;rounded=1;exitX=0;exitY=0.25;exitDx=0;exitDy=0;entryX=0.953;entryY=0.83;entryDx=0;entryDy=0;labelBackgroundColor=none;fontColor=#000000;strokeColor=#457B9D;entryPerimeter=0;fontStyle=1;fontSize=22;align=center;strokeWidth=4;" parent="1" source="w-EnV2-663KXfcH5xZw4-1" target="3tJn8OcnGSbB1yrTGc8p-23" edge="1">
          <mxGeometry width="50" height="50" relative="1" as="geometry">
            <mxPoint x="350" y="330" as="sourcePoint" />
            <mxPoint x="162" y="248" as="targetPoint" />
          </mxGeometry>
        </mxCell>
        <mxCell id="MbpRB5cMLliRTUVDCbU3-2" value="" style="shape=link;html=1;rounded=0;exitX=0.5;exitY=0;exitDx=0;exitDy=0;entryX=0.5;entryY=1;entryDx=0;entryDy=0;fillColor=#1ba1e2;strokeColor=#006EAF;fontStyle=1;fontSize=22;fontColor=#000000;align=center;strokeWidth=4;" parent="1" source="3tJn8OcnGSbB1yrTGc8p-11" target="w-EnV2-663KXfcH5xZw4-67" edge="1">
          <mxGeometry relative="1" as="geometry">
            <mxPoint x="370" y="1360" as="sourcePoint" />
            <mxPoint x="600" y="1370" as="targetPoint" />
          </mxGeometry>
        </mxCell>
        <mxCell id="MbpRB5cMLliRTUVDCbU3-3" value="" style="resizable=0;html=1;align=center;verticalAlign=bottom;fontStyle=1;fontSize=22;fontColor=#000000;" parent="MbpRB5cMLliRTUVDCbU3-2" connectable="0" vertex="1">
          <mxGeometry x="-1" relative="1" as="geometry" />
        </mxCell>
        <mxCell id="MbpRB5cMLliRTUVDCbU3-4" value="" style="resizable=0;html=1;align=center;verticalAlign=bottom;fontStyle=1;fontSize=22;fontColor=#000000;" parent="MbpRB5cMLliRTUVDCbU3-2" connectable="0" vertex="1">
          <mxGeometry x="1" relative="1" as="geometry" />
        </mxCell>
        <mxCell id="MbpRB5cMLliRTUVDCbU3-8" value="" style="endArrow=none;html=1;rounded=0;strokeColor=#457B9D;fontColor=#000000;fillColor=#A8DADC;entryX=0;entryY=1;entryDx=0;entryDy=0;exitX=0.976;exitY=0.031;exitDx=0;exitDy=0;exitPerimeter=0;fontStyle=1;fontSize=22;align=center;strokeWidth=4;" parent="1" source="w-EnV2-663KXfcH5xZw4-67" target="WIk89QahGkB0wBzJT0tM-82" edge="1">
          <mxGeometry width="50" height="50" relative="1" as="geometry">
            <mxPoint x="740" y="1190" as="sourcePoint" />
            <mxPoint x="1396.15" y="933.1200000000001" as="targetPoint" />
          </mxGeometry>
        </mxCell>
        <mxCell id="MbpRB5cMLliRTUVDCbU3-12" value="" style="endArrow=none;html=1;rounded=1;entryX=0;entryY=0.5;entryDx=0;entryDy=0;labelBackgroundColor=none;fontColor=#000000;strokeColor=#457B9D;exitX=0.965;exitY=0.497;exitDx=0;exitDy=0;exitPerimeter=0;fontStyle=1;fontSize=22;align=center;strokeWidth=4;" parent="1" source="w-EnV2-663KXfcH5xZw4-91" target="w-EnV2-663KXfcH5xZw4-75" edge="1">
          <mxGeometry width="50" height="50" relative="1" as="geometry">
            <mxPoint x="870" y="1290" as="sourcePoint" />
            <mxPoint x="770" y="1300" as="targetPoint" />
            <Array as="points" />
          </mxGeometry>
        </mxCell>
        <mxCell id="MbpRB5cMLliRTUVDCbU3-82" style="rounded=1;orthogonalLoop=1;jettySize=auto;html=1;labelBackgroundColor=none;fontColor=#000000;strokeColor=#457B9D;exitX=1;exitY=0.25;exitDx=0;exitDy=0;entryX=0;entryY=1;entryDx=0;entryDy=0;fontStyle=1;fontSize=22;align=center;strokeWidth=4;" parent="1" source="WIk89QahGkB0wBzJT0tM-2" target="WIk89QahGkB0wBzJT0tM-7" edge="1">
          <mxGeometry relative="1" as="geometry">
            <mxPoint x="1600" y="1738.0536912751677" as="sourcePoint" />
            <mxPoint x="1860.796245289178" y="1773.0598986965338" as="targetPoint" />
          </mxGeometry>
        </mxCell>
        <mxCell id="MbpRB5cMLliRTUVDCbU3-83" style="rounded=1;orthogonalLoop=1;jettySize=auto;html=1;labelBackgroundColor=none;fontColor=#000000;strokeColor=#457B9D;exitX=0.95;exitY=0.017;exitDx=0;exitDy=0;entryX=0;entryY=1;entryDx=0;entryDy=0;exitPerimeter=0;fontStyle=1;fontSize=22;align=center;strokeWidth=4;" parent="1" source="WIk89QahGkB0wBzJT0tM-2" target="WIk89QahGkB0wBzJT0tM-8" edge="1">
          <mxGeometry relative="1" as="geometry">
            <mxPoint x="1600" y="1730" as="sourcePoint" />
            <mxPoint x="1866.1091270347406" y="1688.2842712474612" as="targetPoint" />
          </mxGeometry>
        </mxCell>
        <mxCell id="MbpRB5cMLliRTUVDCbU3-85" value="Ndegjon" style="rhombus;whiteSpace=wrap;html=1;labelBackgroundColor=none;rounded=1;fillColor=#fff2cc;strokeColor=#d6b656;fontStyle=1;fontSize=22;fontColor=#000000;align=center;" parent="1" vertex="1">
          <mxGeometry x="1090" y="1532.5" width="190" height="110" as="geometry" />
        </mxCell>
        <mxCell id="MbpRB5cMLliRTUVDCbU3-87" value="" style="endArrow=none;html=1;rounded=1;labelBackgroundColor=none;fontColor=#000000;strokeColor=#457B9D;exitX=0;exitY=0;exitDx=0;exitDy=0;entryX=0.5;entryY=1;entryDx=0;entryDy=0;fontStyle=1;fontSize=22;align=center;strokeWidth=4;" parent="1" source="MbpRB5cMLliRTUVDCbU3-85" target="w-EnV2-663KXfcH5xZw4-75" edge="1">
          <mxGeometry width="50" height="50" relative="1" as="geometry">
            <mxPoint x="965" y="1430" as="sourcePoint" />
            <mxPoint x="1030" y="1380" as="targetPoint" />
          </mxGeometry>
        </mxCell>
        <mxCell id="MbpRB5cMLliRTUVDCbU3-88" value="" style="endArrow=none;html=1;rounded=1;labelBackgroundColor=none;fontColor=#000000;strokeColor=#457B9D;exitX=1;exitY=0.5;exitDx=0;exitDy=0;entryX=0;entryY=0.5;entryDx=0;entryDy=0;fontStyle=1;fontSize=22;align=center;strokeWidth=4;" parent="1" source="MbpRB5cMLliRTUVDCbU3-85" target="WIk89QahGkB0wBzJT0tM-2" edge="1">
          <mxGeometry width="50" height="50" relative="1" as="geometry">
            <mxPoint x="1217.5" y="1622.5" as="sourcePoint" />
            <mxPoint x="1025" y="1330" as="targetPoint" />
          </mxGeometry>
        </mxCell>
        <mxCell id="OdGjZDkKhbmIKut8ALiJ-6" style="rounded=0;orthogonalLoop=1;jettySize=auto;html=1;entryX=1;entryY=0.5;entryDx=0;entryDy=0;fillColor=#b0e3e6;strokeColor=#457B9D;fontStyle=1;fontSize=22;fontColor=#000000;align=center;strokeWidth=4;" parent="1" source="MbpRB5cMLliRTUVDCbU3-126" target="OdGjZDkKhbmIKut8ALiJ-1" edge="1">
          <mxGeometry relative="1" as="geometry" />
        </mxCell>
        <mxCell id="MbpRB5cMLliRTUVDCbU3-126" value="Lendet&amp;nbsp;&lt;br style=&quot;font-size: 22px;&quot;&gt;Viti pare&lt;br style=&quot;font-size: 22px;&quot;&gt;" style="rounded=1;whiteSpace=wrap;html=1;labelBackgroundColor=none;fillColor=#f8cecc;strokeColor=#b85450;fontStyle=1;fontSize=22;fontColor=#000000;align=center;" parent="1" vertex="1">
          <mxGeometry x="1065" y="1800" width="145" height="60" as="geometry" />
        </mxCell>
        <mxCell id="MbpRB5cMLliRTUVDCbU3-127" style="rounded=1;orthogonalLoop=1;jettySize=auto;html=1;labelBackgroundColor=none;fontColor=#000000;strokeColor=#457B9D;exitX=0.029;exitY=0.95;exitDx=0;exitDy=0;entryX=0.712;entryY=0.037;entryDx=0;entryDy=0;entryPerimeter=0;exitPerimeter=0;fontStyle=1;fontSize=22;align=center;strokeWidth=4;" parent="1" source="MbpRB5cMLliRTUVDCbU3-126" target="MbpRB5cMLliRTUVDCbU3-128" edge="1">
          <mxGeometry relative="1" as="geometry">
            <mxPoint x="950" y="1950" as="targetPoint" />
            <mxPoint x="1510" y="1580" as="sourcePoint" />
          </mxGeometry>
        </mxCell>
        <mxCell id="MbpRB5cMLliRTUVDCbU3-128" value="Hyrje ne&amp;nbsp;&lt;br style=&quot;font-size: 22px;&quot;&gt;Programim" style="ellipse;whiteSpace=wrap;html=1;labelBackgroundColor=none;rounded=1;fillColor=#A8DADC;strokeColor=#457B9D;fontColor=#000000;fontStyle=1;fontSize=22;align=center;" parent="1" vertex="1">
          <mxGeometry x="805" y="1950" width="150" height="80" as="geometry" />
        </mxCell>
        <mxCell id="MbpRB5cMLliRTUVDCbU3-129" value="Matematike" style="ellipse;whiteSpace=wrap;html=1;labelBackgroundColor=none;rounded=1;fillColor=#A8DADC;strokeColor=#457B9D;fontColor=#000000;fontStyle=1;fontSize=22;align=center;" parent="1" vertex="1">
          <mxGeometry x="920" y="2010" width="155" height="80" as="geometry" />
        </mxCell>
        <mxCell id="MbpRB5cMLliRTUVDCbU3-130" style="rounded=1;orthogonalLoop=1;jettySize=auto;html=1;labelBackgroundColor=none;fontColor=#000000;strokeColor=#457B9D;exitX=0.25;exitY=1;exitDx=0;exitDy=0;entryX=0.709;entryY=0.021;entryDx=0;entryDy=0;entryPerimeter=0;fontStyle=1;fontSize=22;align=center;strokeWidth=4;" parent="1" source="MbpRB5cMLliRTUVDCbU3-126" target="MbpRB5cMLliRTUVDCbU3-129" edge="1">
          <mxGeometry relative="1" as="geometry">
            <mxPoint x="958.3199999999997" y="1962.9600000000003" as="targetPoint" />
            <mxPoint x="1050" y="1865.0000000000002" as="sourcePoint" />
          </mxGeometry>
        </mxCell>
        <mxCell id="MbpRB5cMLliRTUVDCbU3-131" value="Algoritme" style="ellipse;whiteSpace=wrap;html=1;labelBackgroundColor=none;rounded=1;fillColor=#A8DADC;strokeColor=#457B9D;fontColor=#000000;fontStyle=1;fontSize=22;align=center;" parent="1" vertex="1">
          <mxGeometry x="1100" y="2010" width="110" height="80" as="geometry" />
        </mxCell>
        <mxCell id="MbpRB5cMLliRTUVDCbU3-132" style="rounded=1;orthogonalLoop=1;jettySize=auto;html=1;labelBackgroundColor=none;fontColor=#000000;strokeColor=#457B9D;entryX=0.5;entryY=0;entryDx=0;entryDy=0;fontStyle=1;fontSize=22;align=center;strokeWidth=4;" parent="1" source="MbpRB5cMLliRTUVDCbU3-126" target="MbpRB5cMLliRTUVDCbU3-131" edge="1">
          <mxGeometry relative="1" as="geometry">
            <mxPoint x="1065" y="1960.0000000000002" as="targetPoint" />
            <mxPoint x="1110" y="1865.0000000000002" as="sourcePoint" />
          </mxGeometry>
        </mxCell>
        <mxCell id="OdGjZDkKhbmIKut8ALiJ-5" style="rounded=0;orthogonalLoop=1;jettySize=auto;html=1;fillColor=#b0e3e6;strokeColor=#457B9D;fontStyle=1;fontSize=22;fontColor=#000000;align=center;strokeWidth=4;" parent="1" source="MbpRB5cMLliRTUVDCbU3-137" target="OdGjZDkKhbmIKut8ALiJ-3" edge="1">
          <mxGeometry relative="1" as="geometry" />
        </mxCell>
        <mxCell id="MbpRB5cMLliRTUVDCbU3-137" value="Lendet&amp;nbsp;&lt;br style=&quot;font-size: 22px;&quot;&gt;Viti dyte" style="rounded=1;whiteSpace=wrap;html=1;labelBackgroundColor=none;fillColor=#f8cecc;strokeColor=#b85450;fontStyle=1;fontSize=22;fontColor=#000000;align=center;" parent="1" vertex="1">
          <mxGeometry x="1440" y="1800" width="160" height="60" as="geometry" />
        </mxCell>
        <mxCell id="MbpRB5cMLliRTUVDCbU3-138" style="rounded=1;orthogonalLoop=1;jettySize=auto;html=1;labelBackgroundColor=none;fontColor=#000000;strokeColor=#457B9D;exitX=0.02;exitY=0.971;exitDx=0;exitDy=0;entryX=0.712;entryY=0.037;entryDx=0;entryDy=0;entryPerimeter=0;exitPerimeter=0;fontStyle=1;fontSize=22;align=center;strokeWidth=4;" parent="1" source="MbpRB5cMLliRTUVDCbU3-137" target="MbpRB5cMLliRTUVDCbU3-139" edge="1">
          <mxGeometry relative="1" as="geometry">
            <mxPoint x="1462.5" y="1965" as="targetPoint" />
            <mxPoint x="2022.5" y="1595" as="sourcePoint" />
          </mxGeometry>
        </mxCell>
        <mxCell id="MbpRB5cMLliRTUVDCbU3-139" value="Shkenca&amp;nbsp;&lt;br style=&quot;font-size: 22px;&quot;&gt;Kompjuterike 1" style="ellipse;whiteSpace=wrap;html=1;labelBackgroundColor=none;rounded=1;fillColor=#A8DADC;strokeColor=#457B9D;fontColor=#000000;fontStyle=1;fontSize=22;align=center;" parent="1" vertex="1">
          <mxGeometry x="1267.5" y="2010" width="150" height="80" as="geometry" />
        </mxCell>
        <mxCell id="MbpRB5cMLliRTUVDCbU3-140" value="Dizajn i&amp;nbsp;&lt;br style=&quot;font-size: 22px;&quot;&gt;webit" style="ellipse;whiteSpace=wrap;html=1;labelBackgroundColor=none;rounded=1;fillColor=#A8DADC;strokeColor=#457B9D;fontColor=#000000;fontStyle=1;fontSize=22;align=center;" parent="1" vertex="1">
          <mxGeometry x="1400" y="2030" width="130" height="80" as="geometry" />
        </mxCell>
        <mxCell id="MbpRB5cMLliRTUVDCbU3-141" style="rounded=1;orthogonalLoop=1;jettySize=auto;html=1;labelBackgroundColor=none;fontColor=#000000;strokeColor=#457B9D;exitX=0.25;exitY=1;exitDx=0;exitDy=0;entryX=0.709;entryY=0.021;entryDx=0;entryDy=0;entryPerimeter=0;fontStyle=1;fontSize=22;align=center;strokeWidth=4;" parent="1" source="MbpRB5cMLliRTUVDCbU3-137" target="MbpRB5cMLliRTUVDCbU3-140" edge="1">
          <mxGeometry relative="1" as="geometry">
            <mxPoint x="1470.82" y="1977.9600000000003" as="targetPoint" />
            <mxPoint x="1562.5" y="1880.0000000000002" as="sourcePoint" />
          </mxGeometry>
        </mxCell>
        <mxCell id="MbpRB5cMLliRTUVDCbU3-142" value="Databaze" style="ellipse;whiteSpace=wrap;html=1;labelBackgroundColor=none;rounded=1;fillColor=#A8DADC;strokeColor=#457B9D;fontColor=#000000;fontStyle=1;fontSize=22;align=center;" parent="1" vertex="1">
          <mxGeometry x="1540" y="2035" width="120" height="80" as="geometry" />
        </mxCell>
        <mxCell id="MbpRB5cMLliRTUVDCbU3-143" style="rounded=1;orthogonalLoop=1;jettySize=auto;html=1;labelBackgroundColor=none;fontColor=#000000;strokeColor=#457B9D;entryX=0.5;entryY=0;entryDx=0;entryDy=0;fontStyle=1;fontSize=22;align=center;strokeWidth=4;" parent="1" source="MbpRB5cMLliRTUVDCbU3-137" target="MbpRB5cMLliRTUVDCbU3-142" edge="1">
          <mxGeometry relative="1" as="geometry">
            <mxPoint x="1577.5" y="1975.0000000000002" as="targetPoint" />
            <mxPoint x="1622.5" y="1880.0000000000002" as="sourcePoint" />
          </mxGeometry>
        </mxCell>
        <mxCell id="OdGjZDkKhbmIKut8ALiJ-4" style="rounded=0;orthogonalLoop=1;jettySize=auto;html=1;fillColor=#b0e3e6;strokeColor=#457B9D;fontStyle=1;fontSize=22;fontColor=#000000;align=center;strokeWidth=4;" parent="1" source="MbpRB5cMLliRTUVDCbU3-148" target="OdGjZDkKhbmIKut8ALiJ-2" edge="1">
          <mxGeometry relative="1" as="geometry" />
        </mxCell>
        <mxCell id="MbpRB5cMLliRTUVDCbU3-148" value="Lendet&amp;nbsp;&lt;br style=&quot;font-size: 22px;&quot;&gt;Viti trete" style="rounded=1;whiteSpace=wrap;html=1;labelBackgroundColor=none;fillColor=#f8cecc;strokeColor=#b85450;fontStyle=1;fontSize=22;fontColor=#000000;align=center;" parent="1" vertex="1">
          <mxGeometry x="1820" y="1800" width="140" height="60" as="geometry" />
        </mxCell>
        <mxCell id="MbpRB5cMLliRTUVDCbU3-149" style="rounded=1;orthogonalLoop=1;jettySize=auto;html=1;labelBackgroundColor=none;fontColor=#000000;strokeColor=#457B9D;entryX=0.712;entryY=0.037;entryDx=0;entryDy=0;entryPerimeter=0;exitX=0.02;exitY=0.958;exitDx=0;exitDy=0;exitPerimeter=0;fontStyle=1;fontSize=22;align=center;strokeWidth=4;" parent="1" source="MbpRB5cMLliRTUVDCbU3-148" target="MbpRB5cMLliRTUVDCbU3-150" edge="1">
          <mxGeometry relative="1" as="geometry">
            <mxPoint x="1965" y="1975" as="targetPoint" />
            <mxPoint x="2055" y="1880" as="sourcePoint" />
          </mxGeometry>
        </mxCell>
        <mxCell id="MbpRB5cMLliRTUVDCbU3-150" value="Shkenca&amp;nbsp;&lt;br style=&quot;font-size: 22px;&quot;&gt;Kompjuterike 2" style="ellipse;whiteSpace=wrap;html=1;labelBackgroundColor=none;rounded=1;fillColor=#A8DADC;strokeColor=#457B9D;fontColor=#000000;fontStyle=1;fontSize=22;align=center;" parent="1" vertex="1">
          <mxGeometry x="1760" y="2000" width="160" height="80" as="geometry" />
        </mxCell>
        <mxCell id="MbpRB5cMLliRTUVDCbU3-151" value="BIEE" style="ellipse;whiteSpace=wrap;html=1;labelBackgroundColor=none;rounded=1;fillColor=#A8DADC;strokeColor=#457B9D;fontColor=#000000;fontStyle=1;fontSize=22;align=center;" parent="1" vertex="1">
          <mxGeometry x="1950" y="2035" width="120" height="80" as="geometry" />
        </mxCell>
        <mxCell id="MbpRB5cMLliRTUVDCbU3-152" style="rounded=1;orthogonalLoop=1;jettySize=auto;html=1;labelBackgroundColor=none;fontColor=#000000;strokeColor=#457B9D;exitX=0.25;exitY=1;exitDx=0;exitDy=0;entryX=0.709;entryY=0.021;entryDx=0;entryDy=0;entryPerimeter=0;fontStyle=1;fontSize=22;align=center;strokeWidth=4;" parent="1" source="MbpRB5cMLliRTUVDCbU3-148" target="MbpRB5cMLliRTUVDCbU3-151" edge="1">
          <mxGeometry relative="1" as="geometry">
            <mxPoint x="1973.32" y="1987.9600000000003" as="targetPoint" />
            <mxPoint x="2065" y="1890.0000000000002" as="sourcePoint" />
          </mxGeometry>
        </mxCell>
        <mxCell id="MbpRB5cMLliRTUVDCbU3-153" value="Matematike&lt;br style=&quot;font-size: 22px;&quot;&gt;Diskrete" style="ellipse;whiteSpace=wrap;html=1;labelBackgroundColor=none;rounded=1;fillColor=#A8DADC;strokeColor=#457B9D;fontColor=#000000;fontStyle=1;fontSize=22;align=center;" parent="1" vertex="1">
          <mxGeometry x="2130" y="2030" width="120" height="80" as="geometry" />
        </mxCell>
        <mxCell id="MbpRB5cMLliRTUVDCbU3-154" style="rounded=1;orthogonalLoop=1;jettySize=auto;html=1;labelBackgroundColor=none;fontColor=#000000;strokeColor=#457B9D;entryX=0.5;entryY=0;entryDx=0;entryDy=0;fontStyle=1;fontSize=22;align=center;strokeWidth=4;" parent="1" source="MbpRB5cMLliRTUVDCbU3-148" target="MbpRB5cMLliRTUVDCbU3-153" edge="1">
          <mxGeometry relative="1" as="geometry">
            <mxPoint x="2080" y="1985.0000000000002" as="targetPoint" />
            <mxPoint x="2125" y="1890.0000000000002" as="sourcePoint" />
          </mxGeometry>
        </mxCell>
        <mxCell id="MbpRB5cMLliRTUVDCbU3-159" value="" style="endArrow=none;html=1;rounded=0;exitX=1;exitY=0.5;exitDx=0;exitDy=0;entryX=0;entryY=0.25;entryDx=0;entryDy=0;fontStyle=1;fontSize=22;fontColor=#000000;align=center;fillColor=#b0e3e6;strokeColor=#457B9D;strokeWidth=4;" parent="1" source="MbpRB5cMLliRTUVDCbU3-126" target="MbpRB5cMLliRTUVDCbU3-162" edge="1">
          <mxGeometry width="50" height="50" relative="1" as="geometry">
            <mxPoint x="1470" y="1860" as="sourcePoint" />
            <mxPoint x="1590" y="1505" as="targetPoint" />
          </mxGeometry>
        </mxCell>
        <mxCell id="MbpRB5cMLliRTUVDCbU3-160" value="" style="endArrow=none;html=1;rounded=0;exitX=0;exitY=0.5;exitDx=0;exitDy=0;entryX=0;entryY=0.75;entryDx=0;entryDy=0;fontStyle=1;fontSize=22;fontColor=#000000;align=center;fillColor=#b0e3e6;strokeColor=#457B9D;strokeWidth=4;" parent="1" source="MbpRB5cMLliRTUVDCbU3-148" target="MbpRB5cMLliRTUVDCbU3-162" edge="1">
          <mxGeometry width="50" height="50" relative="1" as="geometry">
            <mxPoint x="870" y="1940" as="sourcePoint" />
            <mxPoint x="1630" y="1505" as="targetPoint" />
          </mxGeometry>
        </mxCell>
        <mxCell id="MbpRB5cMLliRTUVDCbU3-161" value="" style="endArrow=none;html=1;rounded=0;exitX=0.5;exitY=0;exitDx=0;exitDy=0;entryX=0;entryY=0.5;entryDx=0;entryDy=0;fontStyle=1;fontSize=22;fontColor=#000000;align=center;" parent="1" source="MbpRB5cMLliRTUVDCbU3-137" target="MbpRB5cMLliRTUVDCbU3-162" edge="1">
          <mxGeometry width="50" height="50" relative="1" as="geometry">
            <mxPoint x="880" y="1950" as="sourcePoint" />
            <mxPoint x="1610" y="1505" as="targetPoint" />
          </mxGeometry>
        </mxCell>
        <mxCell id="MbpRB5cMLliRTUVDCbU3-162" value="IS A" style="triangle;whiteSpace=wrap;html=1;rotation=-90;labelBackgroundColor=none;rounded=1;fillColor=#ffe6cc;strokeColor=#d79b00;fontStyle=1;fontSize=22;fontColor=#000000;align=center;" parent="1" vertex="1">
          <mxGeometry x="1452.5" y="1642.5" width="65" height="80" as="geometry" />
        </mxCell>
        <mxCell id="MbpRB5cMLliRTUVDCbU3-164" value="" style="endArrow=none;html=1;rounded=0;exitX=0.5;exitY=1;exitDx=0;exitDy=0;entryX=0.918;entryY=0.502;entryDx=0;entryDy=0;entryPerimeter=0;fontStyle=1;fontSize=22;fontColor=#000000;align=center;" parent="1" source="WIk89QahGkB0wBzJT0tM-2" target="MbpRB5cMLliRTUVDCbU3-162" edge="1">
          <mxGeometry width="50" height="50" relative="1" as="geometry">
            <mxPoint x="2065" y="1860" as="sourcePoint" />
            <mxPoint x="1560" y="1720" as="targetPoint" />
          </mxGeometry>
        </mxCell>
        <mxCell id="RLaY5anfLTxkuxkObCUo-2" value="" style="endArrow=classic;html=1;rounded=1;exitX=0.023;exitY=0.011;exitDx=0;exitDy=0;entryX=0.5;entryY=1;entryDx=0;entryDy=0;labelBackgroundColor=none;fontColor=#000000;strokeColor=#457B9D;exitPerimeter=0;fontStyle=1;fontSize=22;align=center;strokeWidth=4;" parent="1" source="w-EnV2-663KXfcH5xZw4-55" target="RLaY5anfLTxkuxkObCUo-5" edge="1">
          <mxGeometry width="50" height="50" relative="1" as="geometry">
            <mxPoint x="-70" y="650" as="sourcePoint" />
            <mxPoint x="-215" y="600" as="targetPoint" />
            <Array as="points" />
          </mxGeometry>
        </mxCell>
        <mxCell id="RLaY5anfLTxkuxkObCUo-5" value="&lt;span style=&quot;border-bottom: 1px dotted; font-size: 22px;&quot;&gt;Numri Telefonit&lt;/span&gt;" style="ellipse;whiteSpace=wrap;html=1;align=center;labelBackgroundColor=none;strokeColor=#457B9D;fontColor=#000000;fillColor=#9AC7BF;gradientColor=none;fontStyle=1;fontSize=22;" parent="1" vertex="1">
          <mxGeometry x="-340" y="510" width="150" height="80" as="geometry" />
        </mxCell>
        <mxCell id="RLaY5anfLTxkuxkObCUo-6" value="Mosha" style="ellipse;whiteSpace=wrap;html=1;align=center;dashed=1;labelBackgroundColor=none;strokeColor=#457B9D;fontColor=#000000;fillColor=#9AC7BF;gradientColor=none;fontStyle=1;fontSize=22;" parent="1" vertex="1">
          <mxGeometry x="1255" y="960" width="175" height="70" as="geometry" />
        </mxCell>
        <mxCell id="RLaY5anfLTxkuxkObCUo-7" value="" style="endArrow=classic;html=1;rounded=1;labelBackgroundColor=none;fontColor=#000000;strokeColor=#457B9D;exitX=0.931;exitY=0.005;exitDx=0;exitDy=0;exitPerimeter=0;entryX=0;entryY=1;entryDx=0;entryDy=0;fontStyle=1;fontSize=22;align=center;strokeWidth=4;" parent="1" source="w-EnV2-663KXfcH5xZw4-75" target="RLaY5anfLTxkuxkObCUo-6" edge="1">
          <mxGeometry width="50" height="50" relative="1" as="geometry">
            <mxPoint x="1082.7199999999998" y="1273.6600000000003" as="sourcePoint" />
            <mxPoint x="1288.2676963726535" y="1123.4811434986987" as="targetPoint" />
            <Array as="points" />
          </mxGeometry>
        </mxCell>
        <mxCell id="RLaY5anfLTxkuxkObCUo-8" value="Data e Lindjes" style="ellipse;whiteSpace=wrap;html=1;align=center;labelBackgroundColor=none;strokeColor=#457B9D;fontColor=#000000;fillColor=#9AC7BF;gradientColor=none;fontStyle=1;fontSize=22;" parent="1" vertex="1">
          <mxGeometry x="1247.5" y="1142.5" width="142.5" height="67.5" as="geometry" />
        </mxCell>
        <mxCell id="RLaY5anfLTxkuxkObCUo-9" value="" style="endArrow=classic;html=1;rounded=1;labelBackgroundColor=none;fontColor=#000000;strokeColor=#457B9D;exitX=1;exitY=0;exitDx=0;exitDy=0;entryX=0.034;entryY=0.962;entryDx=0;entryDy=0;entryPerimeter=0;fontStyle=1;fontSize=22;align=center;strokeWidth=4;" parent="1" source="w-EnV2-663KXfcH5xZw4-110" target="w-EnV2-663KXfcH5xZw4-60" edge="1">
          <mxGeometry width="50" height="50" relative="1" as="geometry">
            <mxPoint x="160" y="1240" as="sourcePoint" />
            <mxPoint x="190" y="1190" as="targetPoint" />
          </mxGeometry>
        </mxCell>
        <mxCell id="RLaY5anfLTxkuxkObCUo-10" value="" style="endArrow=classic;html=1;rounded=1;exitX=0.954;exitY=0.476;exitDx=0;exitDy=0;labelBackgroundColor=none;fontColor=#000000;strokeColor=#457B9D;entryX=0.054;entryY=0.004;entryDx=0;entryDy=0;entryPerimeter=0;exitPerimeter=0;fontStyle=1;fontSize=22;align=center;strokeWidth=4;" parent="1" source="w-EnV2-663KXfcH5xZw4-56" target="w-EnV2-663KXfcH5xZw4-33" edge="1">
          <mxGeometry width="50" height="50" relative="1" as="geometry">
            <mxPoint x="316.94000000000005" y="770.0000000000001" as="sourcePoint" />
            <mxPoint x="32.5" y="747.34" as="targetPoint" />
            <Array as="points" />
          </mxGeometry>
        </mxCell>
        <mxCell id="OdGjZDkKhbmIKut8ALiJ-1" value="ID&amp;nbsp;&lt;br style=&quot;border-color: var(--border-color); font-size: 22px;&quot;&gt;&lt;span style=&quot;text-decoration-line: underline; font-size: 22px;&quot;&gt;Viti&lt;/span&gt;" style="ellipse;whiteSpace=wrap;html=1;fillColor=#b0e3e6;strokeColor=#0e8088;fontStyle=1;fontSize=22;fontColor=#000000;align=center;" parent="1" vertex="1">
          <mxGeometry x="700" y="1840" width="145" height="70" as="geometry" />
        </mxCell>
        <mxCell id="OdGjZDkKhbmIKut8ALiJ-2" value="ID&amp;nbsp;&lt;br style=&quot;border-color: var(--border-color); font-size: 22px;&quot;&gt;Viti" style="ellipse;whiteSpace=wrap;html=1;fillColor=#b0e3e6;strokeColor=#0e8088;fontStyle=1;fontSize=22;fontColor=#000000;align=center;" parent="1" vertex="1">
          <mxGeometry x="2320" y="1980" width="120" height="70" as="geometry" />
        </mxCell>
        <mxCell id="OdGjZDkKhbmIKut8ALiJ-3" value="ID&amp;nbsp;&lt;br style=&quot;border-color: var(--border-color); font-size: 22px;&quot;&gt;Viti" style="ellipse;whiteSpace=wrap;html=1;fillColor=#b0e3e6;strokeColor=#0e8088;fontStyle=1;fontSize=22;fontColor=#000000;align=center;" parent="1" vertex="1">
          <mxGeometry x="1630" y="1930" width="130" height="70" as="geometry" />
        </mxCell>
        <mxCell id="9WCzD4UbaEJ1Sy0KgEHO-1" value="&lt;span style=&quot;border-bottom: 1px dotted; font-size: 22px;&quot;&gt;Numri Telefonit&lt;/span&gt;" style="ellipse;whiteSpace=wrap;html=1;align=center;labelBackgroundColor=none;strokeColor=#457B9D;fontColor=#000000;fillColor=#9AC7BF;gradientColor=none;fontStyle=1;fontSize=22;" parent="1" vertex="1">
          <mxGeometry x="630" y="1580" width="150" height="80" as="geometry" />
        </mxCell>
        <mxCell id="nGieOwr7UJHCVogArHF7-2" value="Llogaria Bankare&lt;br&gt;per Fakultet" style="ellipse;whiteSpace=wrap;html=1;labelBackgroundColor=none;rounded=1;fillColor=#A8DADC;strokeColor=#457B9D;fontColor=#000000;fontStyle=1;fontSize=22;align=center;" parent="1" vertex="1">
          <mxGeometry x="200" y="1425" width="220" height="97.5" as="geometry" />
        </mxCell>
        <mxCell id="IhtWWx1d4svF8pGNt6eG-1" value="" style="endArrow=none;html=1;rounded=0;strokeColor=#457B9D;fontColor=#000000;fillColor=#A8DADC;entryX=1;entryY=0.25;entryDx=0;entryDy=0;exitX=0.5;exitY=0;exitDx=0;exitDy=0;fontStyle=1;fontSize=22;align=center;strokeWidth=4;" parent="1" source="WIk89QahGkB0wBzJT0tM-82" target="w-EnV2-663KXfcH5xZw4-1" edge="1">
          <mxGeometry width="50" height="50" relative="1" as="geometry">
            <mxPoint x="350" y="1125" as="sourcePoint" />
            <mxPoint x="1104" y="896" as="targetPoint" />
            <Array as="points">
              <mxPoint x="1160" y="380" />
            </Array>
          </mxGeometry>
        </mxCell>
        <mxCell id="G0VhuWFy8IEvqpJ6lxd5-5" value="" style="endArrow=classic;startArrow=classic;html=1;rounded=0;strokeColor=#457B9D;strokeWidth=4;entryX=0.029;entryY=0.98;entryDx=0;entryDy=0;entryPerimeter=0;exitX=0.95;exitY=0.288;exitDx=0;exitDy=0;exitPerimeter=0;" parent="1" source="nGieOwr7UJHCVogArHF7-2" target="w-EnV2-663KXfcH5xZw4-67" edge="1">
          <mxGeometry width="50" height="50" relative="1" as="geometry">
            <mxPoint x="425" y="1435" as="sourcePoint" />
            <mxPoint x="475" y="1385" as="targetPoint" />
          </mxGeometry>
        </mxCell>
        <mxCell id="9fcB5W6rhbOBW6xrTI_O-1" value="Ligjeratet e Magjistratures" style="ellipse;whiteSpace=wrap;html=1;labelBackgroundColor=none;rounded=1;fillColor=#A8DADC;strokeColor=#457B9D;fontColor=#000000;fontStyle=1;fontSize=22;align=center;" vertex="1" parent="1">
          <mxGeometry x="602.5" y="1090" width="170" height="70" as="geometry" />
        </mxCell>
        <mxCell id="9fcB5W6rhbOBW6xrTI_O-3" value="" style="endArrow=classic;html=1;rounded=1;labelBackgroundColor=none;fontColor=#000000;strokeColor=#457B9D;exitX=0.75;exitY=0;exitDx=0;exitDy=0;fontStyle=1;fontSize=22;align=center;strokeWidth=4;entryX=0.333;entryY=0.966;entryDx=0;entryDy=0;entryPerimeter=0;" edge="1" parent="1" source="w-EnV2-663KXfcH5xZw4-67" target="9fcB5W6rhbOBW6xrTI_O-1">
          <mxGeometry width="50" height="50" relative="1" as="geometry">
            <mxPoint x="467" y="866" as="sourcePoint" />
            <mxPoint x="512" y="980" as="targetPoint" />
            <Array as="points" />
          </mxGeometry>
        </mxCell>
        <mxCell id="9fcB5W6rhbOBW6xrTI_O-4" value="" style="endArrow=none;html=1;rounded=1;entryX=0.045;entryY=0.526;entryDx=0;entryDy=0;labelBackgroundColor=none;fontColor=#000000;strokeColor=#457B9D;exitX=1;exitY=0.5;exitDx=0;exitDy=0;fontStyle=1;fontSize=22;align=center;strokeWidth=4;entryPerimeter=0;" edge="1" parent="1" source="w-EnV2-663KXfcH5xZw4-67" target="w-EnV2-663KXfcH5xZw4-91">
          <mxGeometry width="50" height="50" relative="1" as="geometry">
            <mxPoint x="909" y="1300" as="sourcePoint" />
            <mxPoint x="950" y="1300" as="targetPoint" />
            <Array as="points" />
          </mxGeometry>
        </mxCell>
      </root>
    </mxGraphModel>
  </diagram>
</mxfile>
